<?xml version="1.0" encoding="UTF-8" standalone="no"?>
<svg
   xmlns:dc="http://purl.org/dc/elements/1.1/"
   xmlns:cc="http://creativecommons.org/ns#"
   xmlns:rdf="http://www.w3.org/1999/02/22-rdf-syntax-ns#"
   xmlns:svg="http://www.w3.org/2000/svg"
   xmlns="http://www.w3.org/2000/svg"
   xmlns:sodipodi="http://sodipodi.sourceforge.net/DTD/sodipodi-0.dtd"
   xmlns:inkscape="http://www.inkscape.org/namespaces/inkscape"
   viewBox="0 0 470 90"
   fill-rule="evenodd"
   clip-rule="evenodd"
   stroke-linejoin="round"
   stroke-miterlimit="1.414"
   version="1.1"
   id="svg62"
   sodipodi:docname="ustc无阴影 科大蓝.svg"
   inkscape:export-filename="C:\Users\jbyan\Desktop\logo.png"
   inkscape:export-xdpi="2000"
   inkscape:export-ydpi="2000"
   inkscape:version="0.92.4 (5da689c313, 2019-01-14)">
  <metadata
     id="metadata68">
    <rdf:RDF>
      <cc:Work
         rdf:about="">
        <dc:format>image/svg+xml</dc:format>
        <dc:type
           rdf:resource="http://purl.org/dc/dcmitype/StillImage" />
        <dc:title />
      </cc:Work>
    </rdf:RDF>
  </metadata>
  <defs
     id="defs66" />
  <sodipodi:namedview
     pagecolor="#ffffff"
     bordercolor="#666666"
     borderopacity="1"
     objecttolerance="10"
     gridtolerance="10"
     guidetolerance="10"
     inkscape:pageopacity="0"
     inkscape:pageshadow="2"
     inkscape:window-width="3840"
     inkscape:window-height="2054"
     id="namedview64"
     showgrid="false"
     inkscape:zoom="4.8425532"
     inkscape:cx="161.69003"
     inkscape:cy="50.011667"
     inkscape:window-x="-11"
     inkscape:window-y="-11"
     inkscape:window-maximized="1"
     inkscape:current-layer="svg62" />
  <filter
     id="dropshadow"
     height="130%">
    <feGaussianBlur
       in="SourceAlpha"
       stdDeviation="2"
       id="feGaussianBlur2" />
    <feOffset
       dx="1"
       dy="2"
       result="offsetblur"
       id="feOffset4" />
    <feComponentTransfer
       id="feComponentTransfer8">
      <feFuncA
         type="linear"
         slope="0.2"
         id="feFuncA6" />
    </feComponentTransfer>
    <feMerge
       id="feMerge14">
      <feMergeNode
         id="feMergeNode10" />
      <feMergeNode
         in="SourceGraphic"
         id="feMergeNode12" />
    </feMerge>
  </filter>
  <filter
     id="dropshadow2"
     height="130%">
    <feGaussianBlur
       in="SourceAlpha"
       stdDeviation="1"
       id="feGaussianBlur17" />
    <feOffset
       dx="1"
       dy="1"
       result="offsetblur"
       id="feOffset19" />
    <feComponentTransfer
       id="feComponentTransfer23">
      <feFuncA
         type="linear"
         slope="0.2"
         id="feFuncA21" />
    </feComponentTransfer>
    <feMerge
       id="feMerge29">
      <feMergeNode
         id="feMergeNode25" />
      <feMergeNode
         in="SourceGraphic"
         id="feMergeNode27" />
    </feMerge>
  </filter>
  <g
     id="g849"
     style="fill:#004daa;fill-opacity:1">
    <path
       style="fill:#004daa;fill-opacity:1"
       fill="#034ea1"
       fill-rule="nonzero"
       id="path36"
       d="M314.877 73.87h3.67c-.028-.53-.088-.9-.183-1.114a1.754 1.754 0 0 0-.644-.793 1.594 1.594 0 0 0-.895-.288c-.48 0-.908.193-1.285.58-.38.386-.602.927-.663 1.615m0 .52c-.006 1.225.277 2.183.857 2.88.577.692 1.257 1.04 2.033 1.04.52 0 .973-.15 1.357-.447.384-.294.704-.803.963-1.52l.27.177c-.122.822-.473 1.57-1.055 2.244-.585.674-1.316 1.01-2.19 1.01-.956 0-1.77-.382-2.448-1.153-.68-.768-1.017-1.806-1.017-3.106 0-1.41.346-2.51 1.045-3.293.693-.787 1.565-1.183 2.618-1.183.89 0 1.62.303 2.19.913.57.608.856 1.42.856 2.44h-5.48zm-2.107-7.057l.13 2.86h-.33c-.063-.504-.148-.864-.26-1.08a1.778 1.778 0 0 0-.713-.768c-.3-.165-.69-.248-1.174-.248h-1.655v9.315c0 .75.08 1.217.233 1.403.22.25.56.376 1.015.376h.408v.335h-4.98v-.334h.417c.497 0 .848-.154 1.055-.466.127-.19.192-.63.192-1.312v-9.315h-1.412c-.547 0-.937.043-1.168.127-.3.113-.558.332-.77.654-.215.326-.34.763-.382 1.314h-.328l.138-2.86h9.585zm-17.085 10.635v-4.244a2.998 2.998 0 0 0-.31-1.113 1.853 1.853 0 0 0-.69-.758c-.286-.17-.564-.256-.836-.256-.51 0-.96.234-1.36.71-.526.624-.79 1.532-.79 2.733 0 1.21.255 2.138.764 2.782.507.644 1.072.966 1.696.966.526 0 1.034-.273 1.525-.82m0 .63c-.388.42-.766.72-1.135.905-.37.18-.77.272-1.195.272-.865 0-1.622-.377-2.27-1.13-.643-.752-.968-1.718-.968-2.896 0-1.18.357-2.262 1.075-3.242.715-.98 1.635-1.47 2.76-1.47.697 0 1.278.232 1.733.692v-1.52c0-.94-.022-1.52-.065-1.736-.044-.215-.113-.363-.205-.44a.506.506 0 0 0-.345-.116c-.15 0-.35.046-.597.145l-.112-.316 2.365-1.008h.388v9.523c0 .962.023 1.55.065 1.763.044.215.112.362.21.446a.482.482 0 0 0 .33.125c.157 0 .366-.05.624-.153l.098.316-2.357 1.015h-.398v-1.178zm-13.043-5.806c.928-1.164 1.816-1.747 2.657-1.747.433 0 .806.115 1.116.338.314.224.562.596.745 1.11.128.36.19.912.19 1.655v3.517c0 .52.042.875.125 1.06.062.148.165.266.306.35.14.084.404.128.785.128v.322h-3.925v-.322h.166c.37 0 .63-.062.774-.18.148-.116.25-.287.308-.515.024-.09.035-.372.035-.843v-3.373c0-.748-.095-1.292-.28-1.633-.19-.34-.506-.508-.95-.508-.685 0-1.37.39-2.05 1.17v4.343c0 .554.03.9.094 1.03.08.176.192.303.333.385.142.08.43.123.86.123v.322h-3.92v-.322h.173c.402 0 .678-.108.82-.32.138-.214.21-.62.21-1.218v-3.06c0-.988-.023-1.59-.066-1.805-.042-.217-.11-.365-.2-.44a.523.523 0 0 0-.36-.118c-.158 0-.354.045-.578.135l-.13-.324 2.39-1.008h.372v1.747zm-6.576 4.962v-3.14c-.872.362-1.432.618-1.687.764-.46.265-.784.54-.98.83-.197.288-.295.6-.295.945 0 .428.124.788.372 1.072.25.283.536.427.858.427.44 0 1.016-.3 1.73-.898m0 .583c-.812.654-1.323 1.03-1.532 1.13-.31.153-.642.23-.993.23-.55 0-1.003-.196-1.357-.587-.354-.39-.533-.9-.533-1.537 0-.403.087-.75.26-1.043.237-.406.648-.79 1.232-1.152.586-.358 1.562-.794 2.924-1.31v-.326c0-.818-.124-1.383-.375-1.69-.25-.305-.617-.456-1.095-.456-.363 0-.653.1-.867.305-.22.204-.327.437-.327.702l.02.52c0 .278-.07.49-.206.64a.685.685 0 0 1-.53.223.66.66 0 0 1-.527-.233c-.137-.155-.205-.368-.205-.638 0-.516.254-.988.763-1.42.508-.43 1.22-.65 2.14-.65.703 0 1.28.124 1.73.37.342.187.593.48.756.873.104.26.154.785.154 1.583v2.794c0 .786.014 1.267.044 1.446.03.174.078.294.142.352a.33.33 0 0 0 .23.093.46.46 0 0 0 .243-.064c.12-.077.355-.3.7-.657v.504c-.645.898-1.263 1.35-1.852 1.35-.28 0-.505-.1-.673-.307-.168-.203-.255-.552-.26-1.043m-15.463-4.467h3.67c-.03-.53-.088-.9-.183-1.114a1.756 1.756 0 0 0-.644-.793 1.594 1.594 0 0 0-.894-.288c-.48 0-.908.193-1.286.58-.38.386-.6.927-.662 1.615m0 .52c-.007 1.225.277 2.183.857 2.88.577.692 1.256 1.04 2.034 1.04.52 0 .972-.15 1.357-.447.384-.294.703-.803.964-1.52l.27.177c-.122.822-.473 1.57-1.056 2.244-.585.674-1.315 1.01-2.19 1.01-.954 0-1.77-.382-2.447-1.153-.678-.768-1.016-1.806-1.016-3.106 0-1.41.346-2.51 1.043-3.293.694-.787 1.567-1.183 2.62-1.183.89 0 1.618.303 2.19.913.57.608.856 1.42.856 2.44h-5.48zm-3.355 2.004c-.213 1.087-.634 1.92-1.257 2.505-.624.583-1.312.875-2.07.875-.9 0-1.686-.39-2.354-1.178-.672-.785-1.006-1.843-1.006-3.18 0-1.297.372-2.35 1.114-3.156.74-.81 1.632-1.215 2.67-1.215.78 0 1.42.216 1.923.646.503.427.754.872.754 1.335 0 .227-.07.41-.212.553-.142.14-.34.21-.595.21-.338 0-.596-.112-.77-.34-.098-.126-.164-.368-.193-.72-.032-.353-.15-.624-.35-.81-.205-.178-.483-.267-.84-.267-.58 0-1.044.22-1.395.664-.47.587-.703 1.364-.703 2.33 0 .98.232 1.848.698 2.6.464.752 1.09 1.13 1.884 1.13.562 0 1.07-.2 1.52-.602.32-.276.626-.776.928-1.503l.25.124zm-14.18-3.602c.93-1.164 1.817-1.747 2.66-1.747.433 0 .806.115 1.116.338.313.224.562.596.745 1.11.128.36.19.912.19 1.655v3.517c0 .52.04.875.124 1.06.062.148.166.266.307.35.14.084.404.128.785.128v.322h-3.925v-.322h.166c.37 0 .628-.062.774-.18a.9.9 0 0 0 .306-.515c.025-.09.036-.372.036-.843v-3.373c0-.748-.094-1.292-.28-1.633-.19-.34-.505-.508-.95-.508-.685 0-1.37.39-2.05 1.17v4.343c0 .554.03.9.095 1.03.08.176.192.303.333.385.142.08.43.123.86.123v.322h-3.92v-.322h.173c.402 0 .677-.108.82-.32.138-.214.21-.62.21-1.218v-3.06c0-.988-.023-1.59-.067-1.805-.04-.217-.11-.365-.198-.44a.525.525 0 0 0-.36-.118 1.6 1.6 0 0 0-.578.135l-.13-.324 2.39-1.008h.37v1.747zm-9.733 1.078h3.67c-.03-.53-.088-.9-.183-1.114a1.754 1.754 0 0 0-.644-.793 1.597 1.597 0 0 0-.895-.288c-.48 0-.908.193-1.286.58-.38.386-.6.927-.663 1.615m0 .52c-.006 1.225.277 2.183.857 2.88.576.692 1.256 1.04 2.033 1.04.52 0 .972-.15 1.357-.447.385-.294.703-.803.963-1.52l.27.177c-.122.822-.474 1.57-1.056 2.244-.585.674-1.314 1.01-2.188 1.01-.956 0-1.77-.382-2.448-1.153-.68-.768-1.017-1.806-1.017-3.106 0-1.41.346-2.51 1.043-3.293.695-.787 1.567-1.183 2.62-1.183.89 0 1.62.303 2.19.913.57.608.857 1.42.857 2.44h-5.48zm-4.413-3.345v6.62c0 .515.036.856.11 1.03.07.17.177.296.32.38.14.084.4.128.776.128v.322h-3.854v-.322c.387 0 .647-.042.777-.12a.774.774 0 0 0 .317-.387c.08-.18.118-.522.118-1.03v-3.177c0-.893-.026-1.47-.077-1.734-.04-.194-.105-.326-.19-.4a.522.522 0 0 0-.356-.114c-.162 0-.358.045-.588.135l-.12-.324 2.386-1.008h.382zm-.718-4.306c.243 0 .45.09.62.265a.905.905 0 0 1 .255.644.912.912 0 0 1-.253.645.83.83 0 0 1-.62.27.842.842 0 0 1-.624-.27.9.9 0 0 1-.26-.646.89.89 0 0 1 .257-.645.834.834 0 0 1 .626-.266m-4.037 9.654c-.214 1.087-.633 1.92-1.257 2.505-.623.583-1.312.875-2.07.875-.9 0-1.686-.39-2.354-1.178-.672-.785-1.007-1.843-1.007-3.18 0-1.297.373-2.35 1.115-3.156.742-.81 1.632-1.215 2.67-1.215.78 0 1.42.216 1.922.646.504.427.754.872.754 1.335a.75.75 0 0 1-.212.553c-.142.14-.34.21-.594.21-.34 0-.598-.112-.77-.34-.1-.126-.164-.368-.194-.72-.032-.353-.15-.624-.35-.81-.205-.178-.483-.267-.84-.267-.58 0-1.044.22-1.396.664-.467.587-.7 1.364-.7 2.33 0 .98.23 1.848.697 2.6.465.752 1.09 1.13 1.882 1.13.565 0 1.073-.2 1.523-.602.32-.276.626-.776.928-1.503l.25.124zm-9.91-9.337v4.215h-.32c-.106-.81-.292-1.454-.558-1.933a2.935 2.935 0 0 0-1.15-1.142 3.075 3.075 0 0 0-1.54-.424c-.6 0-1.096.19-1.49.57-.392.38-.587.816-.587 1.3 0 .37.124.71.372 1.015.357.45 1.21 1.047 2.553 1.798 1.097.61 1.848 1.08 2.246 1.408.403.326.713.712.93 1.154.214.445.324.907.324 1.392 0 .925-.346 1.72-1.035 2.388-.69.668-1.578 1.004-2.662 1.004-.343 0-.662-.03-.964-.084-.178-.026-.55-.138-1.112-.326-.562-.19-.92-.284-1.07-.284a.45.45 0 0 0-.343.135c-.082.09-.144.276-.186.56h-.32v-4.18h.32c.15.873.354 1.528.608 1.964.253.43.64.792 1.164 1.08.52.287 1.093.43 1.717.43.72 0 1.29-.197 1.71-.592.418-.396.627-.862.627-1.402 0-.3-.08-.6-.237-.908-.16-.307-.407-.59-.742-.853-.224-.18-.84-.563-1.844-1.148-1.004-.584-1.717-1.05-2.143-1.397a3.815 3.815 0 0 1-.965-1.15 2.964 2.964 0 0 1-.328-1.386c0-.875.323-1.628.97-2.26.646-.63 1.47-.947 2.467-.947.625 0 1.287.157 1.983.475.322.15.553.223.683.223.15 0 .276-.046.37-.136.095-.098.17-.283.23-.563h.32zm-14.817 4.878v5.413c0 .768.084 1.253.243 1.457.215.265.5.398.857.398h.72v.322h-4.737v-.322h.355c.23 0 .445-.062.634-.18a.937.937 0 0 0 .393-.486c.074-.205.11-.602.11-1.19v-5.412h-1.543v-.648h1.542v-.536c0-.82.127-1.518.382-2.085.254-.57.64-1.03 1.164-1.38a3.083 3.083 0 0 1 1.76-.526c.607 0 1.166.2 1.674.61.335.27.5.573.5.908 0 .18-.074.35-.225.506-.15.16-.31.24-.484.24a.783.783 0 0 1-.42-.147c-.147-.1-.328-.315-.54-.64-.212-.33-.41-.546-.588-.66a1.09 1.09 0 0 0-.597-.17c-.265 0-.49.073-.677.22-.182.144-.316.374-.398.682-.08.31-.122 1.103-.122 2.386v.59h2.045v.65h-2.045zm-9.24-.303a1.76 1.76 0 0 0-.923.282c-.308.19-.558.52-.748.995-.192.47-.286 1.08-.286 1.822 0 1.2.23 2.233.688 3.1.458.87 1.064 1.305 1.814 1.305.56 0 1.02-.238 1.387-.72.363-.48.544-1.302.544-2.47 0-1.465-.303-2.616-.91-3.453-.41-.576-.932-.862-1.568-.862m.27-.587c1.2 0 2.162.477 2.893 1.42.617.812.924 1.742.924 2.788 0 .74-.17 1.485-.512 2.24-.34.756-.81 1.326-1.407 1.71a3.614 3.614 0 0 1-1.993.572c-1.197 0-2.146-.492-2.85-1.48a4.72 4.72 0 0 1-.892-2.805c0-.758.18-1.51.54-2.253.36-.747.837-1.298 1.426-1.654a3.53 3.53 0 0 1 1.87-.538m-17.63.242h3.698v.336h-.18c-.26 0-.455.058-.585.173a.564.564 0 0 0-.195.437c0 .233.095.56.287.97l1.93 4.155 1.776-4.548c.1-.248.146-.49.146-.73a.425.425 0 0 0-.06-.244.476.476 0 0 0-.215-.155c-.1-.04-.27-.057-.52-.057v-.336h2.582v.336c-.214.024-.38.07-.495.143-.115.07-.243.207-.38.406-.054.083-.152.312-.296.69l-3.227 8.22c-.313.797-.72 1.397-1.226 1.807-.506.406-.99.61-1.46.61-.34 0-.62-.104-.84-.31-.218-.202-.328-.434-.328-.697 0-.253.08-.455.236-.61.16-.152.378-.23.655-.23.192 0 .452.068.78.2.23.09.375.135.434.135.17 0 .36-.095.568-.278.203-.187.41-.547.616-1.08l.565-1.427-2.85-6.214a5.015 5.015 0 0 0-.415-.693c-.145-.21-.263-.352-.355-.423-.133-.094-.346-.18-.642-.25v-.337zm-3.057-2.702v2.702h1.853v.63h-1.853v5.342c0 .534.073.893.22 1.077a.68.68 0 0 0 .566.28c.19 0 .374-.062.554-.185.178-.123.317-.303.418-.543h.336c-.204.586-.488 1.027-.857 1.325-.37.297-.75.445-1.143.445a1.49 1.49 0 0 1-.78-.232 1.363 1.363 0 0 1-.562-.655c-.12-.282-.183-.72-.183-1.317v-5.538H167.1v-.295c.316-.133.64-.357.97-.67.332-.316.63-.69.888-1.12.133-.227.32-.643.556-1.248h.27zm-5.382 2.46v6.62c0 .515.036.856.11 1.03.07.17.178.296.32.38.142.084.4.128.776.128v.322h-3.854v-.322c.388 0 .647-.042.778-.12a.774.774 0 0 0 .317-.387c.08-.18.117-.522.117-1.03v-3.177c0-.893-.026-1.47-.077-1.734-.04-.194-.105-.326-.192-.4a.517.517 0 0 0-.354-.114c-.162 0-.357.045-.588.135l-.12-.324 2.387-1.008h.38zm-.717-4.306c.242 0 .45.09.62.265a.91.91 0 0 1 .255.644.916.916 0 0 1-.254.645.833.833 0 0 1-.62.27.842.842 0 0 1-.625-.27.9.9 0 0 1-.26-.646.89.89 0 0 1 .256-.645.835.835 0 0 1 .627-.266m-4.68 4.305v2.805h-.286c-.218-.88-.5-1.48-.842-1.797-.346-.317-.783-.476-1.312-.476-.405 0-.73.11-.98.333-.247.222-.37.467-.37.737 0 .336.09.624.274.863.18.246.544.505 1.094.782l1.263.64c1.173.592 1.76 1.372 1.76 2.346 0 .748-.274 1.35-.82 1.81-.544.46-1.156.687-1.83.687-.488 0-1.04-.09-1.664-.268a1.65 1.65 0 0 0-.468-.09c-.133 0-.237.076-.313.233h-.285v-2.94h.284c.16.837.472 1.47.927 1.897.455.425.966.638 1.53.638.4 0 .725-.12.977-.362.25-.246.374-.536.374-.877 0-.415-.14-.762-.42-1.044-.277-.283-.835-.64-1.674-1.07-.837-.43-1.385-.82-1.644-1.168-.26-.343-.39-.773-.39-1.294 0-.678.225-1.246.67-1.7.447-.454 1.026-.685 1.735-.685.314 0 .692.07 1.135.21.295.088.49.134.588.134a.33.33 0 0 0 .22-.065.9.9 0 0 0 .18-.28h.286zm-9.595 0V72.9c.66-1.237 1.344-1.855 2.042-1.855.316 0 .58.1.79.3.206.203.31.437.31.698a.84.84 0 0 1-.225.595.705.705 0 0 1-.538.242c-.2 0-.43-.104-.68-.308-.25-.207-.437-.31-.56-.31-.1 0-.215.057-.336.177-.26.243-.528.65-.802 1.213V77.6c0 .455.053.802.163 1.035a.9.9 0 0 0 .4.403c.192.108.463.165.82.165v.322h-4.06v-.322c.405 0 .707-.068.902-.2.144-.096.245-.25.304-.458.026-.103.04-.392.04-.875v-3.19c0-.957-.016-1.53-.055-1.713-.034-.18-.105-.317-.206-.398a.57.57 0 0 0-.378-.128c-.178 0-.38.045-.607.135l-.085-.324 2.4-1.008h.363zm-9.744 2.825h3.67c-.03-.53-.088-.9-.183-1.114a1.754 1.754 0 0 0-.643-.793 1.595 1.595 0 0 0-.896-.288c-.477 0-.906.193-1.284.58-.38.386-.6.927-.662 1.615m0 .52c-.007 1.225.277 2.183.857 2.88.577.692 1.256 1.04 2.034 1.04.52 0 .972-.15 1.357-.447.385-.294.705-.803.965-1.52l.268.177c-.12.822-.473 1.57-1.055 2.244-.585.674-1.315 1.01-2.19 1.01-.954 0-1.77-.382-2.447-1.153-.68-.768-1.016-1.806-1.016-3.106 0-1.41.346-2.51 1.044-3.293.695-.787 1.566-1.183 2.618-1.183.89 0 1.62.303 2.19.913.57.608.857 1.42.857 2.44h-5.48zm-11.493-3.103h3.732v.336h-.245c-.224 0-.396.054-.513.168a.613.613 0 0 0-.18.46c0 .21.063.458.185.748l1.844 4.547 1.852-4.72c.134-.335.2-.59.2-.763a.323.323 0 0 0-.07-.206.504.504 0 0 0-.242-.185c-.1-.033-.3-.047-.6-.047v-.336h2.59v.336c-.3.024-.508.084-.625.187-.202.18-.382.48-.544.898l-2.814 7.067h-.354l-2.832-6.95c-.127-.32-.25-.554-.363-.697a1.463 1.463 0 0 0-.444-.352c-.098-.055-.293-.11-.58-.153v-.336zm-2.672-.242v6.62c0 .515.036.856.11 1.03.07.17.177.296.32.38.14.084.4.128.776.128v.322h-3.854v-.322c.388 0 .648-.042.778-.12a.777.777 0 0 0 .316-.387c.08-.18.118-.522.118-1.03v-3.177c0-.893-.027-1.47-.076-1.734-.042-.194-.107-.326-.193-.4a.52.52 0 0 0-.355-.114c-.163 0-.358.045-.588.135l-.12-.324 2.387-1.008h.38zm-.718-4.306c.243 0 .45.09.62.265a.905.905 0 0 1 .255.644.912.912 0 0 1-.254.645.83.83 0 0 1-.62.27.844.844 0 0 1-.624-.27.91.91 0 0 1-.26-.646.9.9 0 0 1 .257-.645.836.836 0 0 1 .627-.266m-9.457 6.052c.927-1.164 1.815-1.747 2.657-1.747.434 0 .807.115 1.117.338.314.224.562.596.744 1.11.128.36.19.912.19 1.655v3.517c0 .52.042.875.125 1.06.062.148.166.266.307.35.14.084.402.128.783.128v.322h-3.924v-.322h.166c.37 0 .63-.062.774-.18.148-.116.25-.287.308-.515.024-.09.035-.372.035-.843v-3.373c0-.748-.095-1.292-.28-1.633-.19-.34-.506-.508-.95-.508-.685 0-1.37.39-2.05 1.17v4.343c0 .554.03.9.095 1.03.08.176.19.303.333.385.143.08.43.123.86.123v.322h-3.92v-.322h.174c.402 0 .677-.108.82-.32.138-.214.208-.62.208-1.218v-3.06c0-.988-.02-1.59-.064-1.805-.042-.217-.11-.365-.2-.44a.525.525 0 0 0-.36-.118c-.158 0-.354.045-.578.135l-.13-.324 2.39-1.008h.373v1.747zm-8.102-5.126v-.333h4.16v.333h-.443c-.46 0-.815.202-1.064.603-.12.186-.183.614-.183 1.293v4.945c0 1.224-.115 2.17-.35 2.844-.233.674-.694 1.255-1.377 1.736-.685.483-1.616.725-2.79.725-1.285 0-2.257-.23-2.92-.693a3.725 3.725 0 0 1-1.412-1.86c-.182-.535-.276-1.536-.276-3.004V69.49c0-.75-.098-1.24-.3-1.473-.197-.233-.52-.35-.963-.35h-.442v-.334h5.075v.333h-.45c-.484 0-.834.158-1.04.478-.145.213-.216.665-.216 1.345v5.316c0 .47.04 1.015.124 1.626.087.61.238 1.09.456 1.43.22.34.535.62.95.842.412.225.918.334 1.52.334.767 0 1.453-.174 2.06-.52.604-.347 1.02-.792 1.243-1.335.22-.544.333-1.46.333-2.757V69.49c0-.76-.083-1.236-.242-1.427-.227-.264-.562-.397-1.004-.397h-.445z" />
    <path
       style="fill:#004daa;fill-opacity:1"
       id="path40"
       fill-rule="nonzero"
       fill="#034ea1"
       d="M461.553 77.754v-3.14c-.87.362-1.434.617-1.687.764-.46.265-.784.54-.98.83a1.63 1.63 0 0 0-.295.945c0 .428.125.788.373 1.072.25.282.536.427.858.427.44 0 1.018-.3 1.733-.898m0 .584c-.813.653-1.325 1.03-1.534 1.13-.312.152-.642.228-.994.228-.55 0-1.003-.195-1.357-.586-.356-.39-.533-.9-.533-1.537 0-.403.086-.75.26-1.044.236-.406.648-.79 1.232-1.152.585-.358 1.56-.795 2.923-1.31v-.326c0-.818-.125-1.383-.376-1.69-.25-.304-.617-.456-1.097-.456-.364 0-.652.1-.865.305-.22.204-.328.437-.328.702l.017.52c0 .278-.068.49-.203.64a.69.69 0 0 1-.53.223.66.66 0 0 1-.527-.233c-.137-.155-.205-.368-.205-.638 0-.515.255-.988.763-1.42.51-.43 1.22-.65 2.14-.65.705 0 1.28.124 1.733.37.34.187.59.48.753.873.104.26.155.785.155 1.582v2.794c0 .787.014 1.268.044 1.446.03.174.078.294.142.352a.328.328 0 0 0 .23.093.45.45 0 0 0 .242-.064c.123-.077.356-.3.702-.657v.505c-.644.897-1.262 1.348-1.853 1.348-.28 0-.506-.1-.674-.306-.168-.203-.255-.552-.26-1.042m-11.934-5.546c.926-1.163 1.813-1.747 2.656-1.747.434 0 .807.115 1.117.34.313.222.562.594.744 1.11.127.357.19.91.19 1.653v3.516c0 .52.04.876.124 1.06a.73.73 0 0 0 .308.352c.14.083.402.127.783.127v.322h-3.923v-.322h.165c.37 0 .63-.062.775-.18a.92.92 0 0 0 .307-.516c.023-.088.034-.37.034-.843v-3.372c0-.75-.094-1.292-.28-1.633-.188-.34-.504-.507-.95-.507-.685 0-1.37.39-2.05 1.17v4.34c0 .556.03.902.095 1.033a.82.82 0 0 0 .334.384c.142.08.428.123.86.123v.322h-3.922v-.322h.174c.402 0 .676-.108.818-.32.14-.215.21-.62.21-1.22v-3.058c0-.988-.02-1.59-.065-1.804-.04-.217-.11-.364-.198-.44a.53.53 0 0 0-.36-.118c-.16 0-.355.045-.58.134l-.13-.324 2.39-1.007h.374v1.747zm-5.392-1.747v6.62c0 .515.036.856.11 1.03a.78.78 0 0 0 .32.38c.14.084.4.128.776.128v.322h-3.855v-.322c.387 0 .646-.042.776-.12a.77.77 0 0 0 .317-.387c.08-.18.118-.52.118-1.032V74.49c0-.893-.025-1.47-.076-1.734-.04-.194-.105-.326-.192-.4a.508.508 0 0 0-.354-.114c-.163 0-.36.045-.59.134l-.12-.324 2.388-1.007h.382zm-.72-4.306c.243 0 .45.088.623.265.17.18.255.392.255.644a.91.91 0 0 1-.254.645.835.835 0 0 1-.62.27.84.84 0 0 1-.624-.27.902.902 0 0 1-.26-.646c0-.253.085-.466.257-.645a.832.832 0 0 1 .626-.266m-9.44 0v6.025c.638-.73 1.147-1.2 1.522-1.41.375-.205.75-.31 1.125-.31.45 0 .837.13 1.163.388.322.258.56.66.718 1.214.11.383.162 1.085.162 2.1v2.917c0 .52.042.877.124 1.07a.688.688 0 0 0 .293.342c.14.083.393.127.763.127v.322h-3.896v-.322h.18c.37 0 .627-.062.773-.18.144-.116.243-.288.3-.516.02-.094.027-.376.027-.843v-2.916c0-.897-.044-1.487-.132-1.77-.093-.28-.235-.49-.43-.632a1.2 1.2 0 0 0-.712-.212c-.28 0-.576.078-.88.235-.31.154-.675.467-1.1.945v4.35c0 .56.03.91.09 1.05a.75.75 0 0 0 .34.346c.16.094.445.143.85.143v.322h-3.93v-.322c.35 0 .628-.058.83-.173a.646.646 0 0 0 .277-.34c.07-.17.104-.51.104-1.026V70.21c0-.94-.02-1.52-.065-1.736-.04-.215-.108-.362-.198-.44a.52.52 0 0 0-.36-.116c-.12 0-.316.046-.587.144l-.122-.314 2.373-1.01h.4zm-4.923.316l.268 4.144h-.268c-.358-1.24-.87-2.133-1.53-2.68-.667-.547-1.46-.82-2.392-.82-.78 0-1.485.207-2.113.618-.63.41-1.124 1.065-1.484 1.963-.36.9-.542 2.02-.542 3.355 0 1.103.17 2.06.51 2.87.342.807.853 1.427 1.54 1.86.682.433 1.462.647 2.34.647.762 0 1.434-.17 2.02-.51.58-.337 1.222-1.01 1.92-2.016l.268.178c-.588 1.086-1.277 1.88-2.06 2.384-.786.504-1.717.756-2.798.756-1.945 0-3.453-.748-4.52-2.25-.794-1.114-1.194-2.426-1.194-3.937 0-1.214.263-2.336.787-3.353.525-1.02 1.25-1.808 2.168-2.37a5.725 5.725 0 0 1 3.017-.838c.85 0 1.688.216 2.512.645.243.133.418.2.52.2a.56.56 0 0 0 .405-.17c.15-.16.258-.387.323-.674h.302zm-17.36 4.88v5.412c0 .768.08 1.253.24 1.457.217.265.5.398.858.398h.722v.322h-4.74v-.322h.357c.23 0 .443-.062.632-.18a.938.938 0 0 0 .393-.486c.073-.205.11-.602.11-1.19v-5.412h-1.545v-.648h1.544v-.536c0-.82.125-1.52.38-2.085.254-.57.64-1.03 1.163-1.382a3.1 3.1 0 0 1 1.763-.524c.605 0 1.164.2 1.67.61.336.27.502.573.502.908 0 .18-.074.35-.224.506-.152.16-.312.24-.485.24a.778.778 0 0 1-.42-.147c-.15-.1-.33-.315-.542-.64-.213-.328-.41-.546-.588-.662a1.1 1.1 0 0 0-.597-.168c-.267 0-.49.073-.677.22-.183.143-.316.374-.4.682-.078.31-.12 1.103-.12 2.386v.59h2.046v.65h-2.046zm-9.242-.305c-.306 0-.613.095-.923.284-.307.19-.56.52-.748.995-.192.47-.287 1.08-.287 1.822 0 1.2.232 2.234.69 3.1.458.87 1.064 1.305 1.814 1.305.56 0 1.02-.24 1.387-.718.363-.483.544-1.305.544-2.474 0-1.464-.3-2.615-.91-3.452-.408-.576-.93-.863-1.565-.863m.268-.585c1.2 0 2.164.477 2.894 1.42.616.812.926 1.742.926 2.788 0 .74-.172 1.485-.514 2.24-.34.755-.81 1.326-1.407 1.71a3.614 3.614 0 0 1-1.994.572c-1.2 0-2.147-.492-2.85-1.48a4.722 4.722 0 0 1-.893-2.806c0-.758.18-1.51.54-2.253.362-.747.837-1.298 1.425-1.654a3.544 3.544 0 0 1 1.87-.538m-17.63.242h3.7v.336h-.182c-.26 0-.455.058-.585.173a.567.567 0 0 0-.194.437c0 .233.095.56.288.97l1.93 4.155 1.775-4.548c.097-.248.145-.49.145-.73a.425.425 0 0 0-.06-.244.485.485 0 0 0-.215-.155c-.1-.04-.27-.057-.52-.057v-.336h2.58v.336c-.213.024-.378.07-.494.143-.116.07-.243.207-.38.406-.054.083-.152.312-.298.69l-3.227 8.22c-.313.797-.72 1.397-1.227 1.806-.504.408-.99.61-1.46.61-.338 0-.62-.102-.84-.307-.216-.202-.327-.434-.327-.697 0-.253.08-.455.238-.61.16-.152.378-.23.656-.23.19 0 .45.068.777.2.232.09.377.135.435.135.172 0 .36-.094.568-.278.205-.187.41-.547.618-1.08l.565-1.427-2.85-6.214a5.057 5.057 0 0 0-.415-.693c-.145-.21-.264-.352-.356-.423-.132-.094-.344-.18-.64-.25v-.337zm-7.266 8.238a4.53 4.53 0 0 0-.615.853c-.137.264-.206.506-.206.73 0 .285.166.538.503.755.577.372 1.41.556 2.5.556 1.04 0 1.807-.193 2.3-.572.494-.38.742-.786.742-1.218 0-.31-.15-.533-.444-.664-.3-.13-.897-.21-1.782-.236-1.3-.034-2.3-.104-2.998-.205m1.594-8.047c-.426 0-.787.18-1.074.53-.29.353-.434.897-.434 1.627 0 .948.198 1.682.59 2.203.3.397.68.593 1.142.593.44 0 .8-.167 1.082-.513.283-.338.425-.877.425-1.606 0-.954-.196-1.7-.595-2.238-.296-.397-.675-.594-1.135-.594m-1.508 5.043a2.643 2.643 0 0 1-1.117-1.03 2.816 2.816 0 0 1-.387-1.46c0-.814.296-1.515.886-2.105.592-.585 1.348-.88 2.273-.88.757 0 1.41.193 1.965.578h1.68c.248 0 .392.006.434.02a.16.16 0 0 1 .086.078c.035.056.053.15.053.29 0 .156-.015.263-.044.32a.193.193 0 0 1-.092.075c-.04.02-.188.025-.437.025h-1.027c.322.432.484.984.484 1.658 0 .767-.284 1.42-.848 1.966-.57.546-1.328.82-2.28.82-.393 0-.792-.062-1.203-.182-.253.226-.425.427-.514.597-.092.172-.135.316-.135.436 0 .1.046.2.14.296.1.097.285.163.56.207.163.024.567.045 1.214.064 1.19.028 1.96.07 2.31.125.537.077.965.28 1.287.618.318.336.478.75.478 1.242 0 .678-.304 1.312-.916 1.905-.9.874-2.075 1.314-3.523 1.314-1.115 0-2.058-.263-2.827-.784-.43-.3-.647-.612-.647-.936 0-.144.03-.287.095-.43.098-.223.302-.53.608-.927.04-.055.334-.377.883-.97-.3-.187-.51-.352-.635-.5a.756.756 0 0 1-.187-.5c0-.208.08-.453.245-.735.166-.282.546-.682 1.14-1.197m-8.265-4.89c-.304 0-.61.095-.922.284-.307.19-.557.52-.748.995-.19.47-.286 1.08-.286 1.822 0 1.2.23 2.234.69 3.1.457.87 1.063 1.305 1.813 1.305.56 0 1.02-.24 1.386-.718.365-.483.545-1.305.545-2.474 0-1.464-.3-2.615-.91-3.452-.408-.576-.93-.863-1.567-.863m.27-.585c1.2 0 2.163.477 2.893 1.42.618.812.926 1.742.926 2.788 0 .74-.17 1.485-.51 2.24-.342.755-.81 1.326-1.408 1.71a3.613 3.613 0 0 1-1.995.572c-1.196 0-2.145-.492-2.85-1.48a4.728 4.728 0 0 1-.89-2.806c0-.758.178-1.51.54-2.253.36-.747.836-1.298 1.423-1.654a3.545 3.545 0 0 1 1.872-.538m-6.967-4.306v10.924c0 .516.04.857.11 1.026a.788.788 0 0 0 .335.38c.15.085.43.133.84.133v.322h-3.886v-.322c.362 0 .61-.042.74-.12a.748.748 0 0 0 .312-.387c.075-.18.114-.52.114-1.032v-7.482c0-.928-.022-1.5-.06-1.71-.04-.213-.106-.36-.194-.437a.508.508 0 0 0-.345-.117c-.15 0-.338.046-.568.144l-.15-.314 2.364-1.01h.387zm-8.867 4.89c-.305 0-.612.095-.923.284-.307.19-.558.52-.747.995-.192.47-.287 1.08-.287 1.822 0 1.2.23 2.234.69 3.1.457.87 1.063 1.305 1.813 1.305.558 0 1.02-.24 1.385-.718.364-.483.545-1.305.545-2.474 0-1.464-.302-2.615-.91-3.452-.41-.576-.932-.863-1.567-.863m.27-.585c1.198 0 2.16.477 2.89 1.42.62.812.927 1.742.927 2.788 0 .74-.17 1.485-.51 2.24-.34.755-.81 1.326-1.408 1.71a3.616 3.616 0 0 1-1.996.572c-1.196 0-2.145-.492-2.848-1.48a4.728 4.728 0 0 1-.892-2.806c0-.758.18-1.51.54-2.253.36-.747.836-1.298 1.424-1.654a3.545 3.545 0 0 1 1.872-.538m-11.32 1.747c.928-1.163 1.815-1.747 2.657-1.747.433 0 .806.115 1.117.34.313.222.56.594.744 1.11.127.357.19.91.19 1.653v3.516c0 .52.04.876.124 1.06.063.15.165.267.308.352.138.083.402.127.782.127v.322h-3.923v-.322h.165c.37 0 .63-.062.775-.18a.915.915 0 0 0 .307-.516c.024-.088.035-.37.035-.843v-3.372c0-.75-.095-1.292-.28-1.633-.19-.34-.505-.507-.95-.507-.685 0-1.37.39-2.05 1.17v4.34c0 .556.03.902.095 1.033.08.175.192.302.333.384.142.08.43.123.86.123v.322h-3.92v-.322h.173c.403 0 .676-.108.82-.32.138-.215.208-.62.208-1.22v-3.058c0-.988-.02-1.59-.063-1.804-.042-.217-.11-.364-.198-.44a.533.533 0 0 0-.362-.118c-.16 0-.354.045-.58.134l-.13-.324 2.392-1.007h.373v1.747zm-9.735-6.053v6.025c.638-.73 1.146-1.2 1.522-1.41.374-.205.75-.31 1.125-.31.45 0 .837.13 1.162.388.322.258.56.66.718 1.214.11.383.162 1.085.162 2.1v2.917c0 .52.042.877.124 1.07a.686.686 0 0 0 .293.342c.14.083.394.127.764.127v.322h-3.896v-.322h.18c.37 0 .628-.062.772-.18.146-.116.246-.288.302-.516.02-.094.026-.376.026-.843v-2.916c0-.897-.044-1.487-.132-1.77-.092-.28-.234-.49-.428-.632-.2-.14-.435-.212-.712-.212-.282 0-.578.078-.88.235-.31.154-.675.467-1.1.945v4.35c0 .56.03.91.088 1.05.06.138.174.253.34.346.16.094.446.143.85.143v.322h-3.93v-.322c.352 0 .63-.058.83-.173a.648.648 0 0 0 .278-.34c.07-.17.103-.51.103-1.026V70.21c0-.94-.02-1.52-.065-1.736-.04-.215-.11-.362-.198-.44a.52.52 0 0 0-.36-.116c-.12 0-.316.046-.59.144l-.12-.314 2.374-1.01h.4zm-4.35 9.654c-.213 1.087-.633 1.92-1.257 2.504-.623.585-1.31.877-2.068.877-.902 0-1.688-.392-2.356-1.178-.67-.784-1.004-1.843-1.004-3.18 0-1.297.372-2.35 1.113-3.156.743-.81 1.632-1.215 2.67-1.215.78 0 1.42.216 1.924.646.5.426.752.872.752 1.334 0 .227-.07.412-.213.553-.142.14-.34.21-.594.21-.34 0-.598-.11-.772-.338-.1-.128-.163-.37-.192-.723-.033-.352-.15-.623-.353-.81-.204-.177-.482-.266-.84-.266-.578 0-1.043.22-1.394.664-.468.587-.7 1.364-.7 2.33 0 .98.23 1.848.697 2.6.464.752 1.09 1.13 1.882 1.13.565 0 1.073-.2 1.522-.6.32-.278.627-.778.928-1.506l.25.126z" />
    <path
       sodipodi:nodetypes="cccccccccccccccccccccccccccccccccccccccccccccccccccccccccsccccccccccccccccccccccscscccccccccccccccccccccccccccccccccccccccccccccccccccccccccccccccccccccccccccccccccccccccccccccccccccccccccccccccccccccccccccccccccccccccccccccccccccccccccccccccccccccccccccccccccccccccccccccccccccccccccccccccccccccccccccccccccccccccccccccccccccccccccccccccccccccccccccccccccccccccccccccccccccccccccccccccccccccccccccccccccccccccccccccccscccccccccccccccccccccccccccccccccccccccccccccccccccccccccccccsccccccccccccccccccccccccccccccccccccccccccccccccccccccccccccccccccccccccccccccccccccccccccccccccccccccccccccc"
       style="fill:#004daa;fill-rule:nonzero;fill-opacity:1"
       inkscape:connector-curvature="0"
       id="path44"
       d="m 99.162435,24.218952 c 1.339995,0.073 2.013995,0.984 2.667995,1.75 h 1.294 l 1.752,-1.447 c 1.18,-0.68 2.956,-0.93 4.19,-1.752 0.94,-0.624 1.8,-0.056 2.437,-1.218 0.77,-1.83 -0.577,-3.59 0.076,-5.864 0.33,-1.14 0.576,-1.898 0.762,-3.2 0.02,-0.143 -0.2,-2.9179998 0.152,-2.6649998 l 0.153,-0.23 c 2.5,-0.07 5.95,3.7659998 7.997,5.0279998 0.13,2.134 -0.67,3.976 -0.305,5.865 2.47,1.19 5.927,-0.206 8.607,-0.685 0.99,0.05 1.98,0.1 2.97,0.152 0.466,0.244 0.95,0.984 1.448,0.99 v 0.685 c -1.144,0.814 -1.9,2.04 -2.818,3.048 -0.82,0.897 -3.087,2 -4.418,2.817 -0.984,0.605 -2.46,1.01 -2.514,2.514 l 0.533,0.457 c 1.876,0.866 4.55,-0.126 5.408,1.83 0.173,0.39 0.516,0.767 0.078,1.218 -1.135,1.8 -4.2,0.413 -5.865,1.522 -1.402,0.933 -2.74,2.17 -3.884,3.123 -1.047,0.873 -2.4,0.32 -3.124,1.524 -0.835,1.385 -0.078,3.976 -0.38,5.56 -0.13,0.355 -0.255,0.71 -0.382,1.068 -2.194,0.338 -1.678,4.85 -3.275,6.32 -0.496,-2.82 -2.162,-5.273 -2.667,-7.693 -0.222,-1.063 0.403,-2.434 -0.457,-3.123 -0.474,-0.233 -1.442,-0.094 -1.98,-0.153 -0.715,-1.537 -1.19,-3.61 -2.894,-4.19 -0.73,-0.247 -1.064,0.29 -2.21,0.306 -0.207,-0.47 -0.44,-1.477 -0.837,-2.057 -0.48,-0.7 -1.607,-0.955 -2.132995,-1.6 v -0.228 c -0.453,-1.044 -0.01,-1.847 -0.23,-2.59 -0.118,-0.405 -0.74,-0.782 -0.837,-1.37 0.928,-1.07 0.705,-3.23 0.686,-5.712 m 6.855995,7.54 c 1.02,0.976 1.154,1.748 1.143,3.656 0.39,0.17 0.267,0.177 0.456,0.455 0.65,0.056 1.27,0.06 1.828,-0.075 0.16,-0.475 0.896,-1.29 1.066,-1.83 0.43,-1.35 0.605,-4.788 -0.304,-5.56 l -0.153,-0.227 c -1.53,0.003 -3.56,1.738 -3.96,2.894 -0.026,0.23 -0.05,0.457 -0.077,0.685 m 12.415,-4.19 c 0.286,0.767 0.3,1.325 0.61,1.906 1.54,-0.852 7.3,-4.564 7.465,-6.17 h -0.152 c -0.968,-0.412 -2.567,0.026 -3.35,0.305 h -1.906 c -2.242,0.498 -2.706,1.565 -2.666,3.96 m 27.802,18.128 c 0.013,-3.334 1.224,-6.555 1.904,-9.443 v -2.057 c 0,-3.514 -1.56,-6.864 -1.066,-9.977 1.02,-6.456 6.845,-9.946 12.49,-11.73 2.15,-0.68 8.865,-2.7999998 11.655,-1.144 0.387,0.23 1.394,0.1 1.903,0.457 5.194,3.628 3.892,15.497 3.96,23.764 0.035,4.028 0.816,9.953 -1.14,12.34 -0.51,0.622 -6.332,4.635 -8,3.733 -1.868,-1.013 -3.108,-3.445 -5.483,-3.58 -0.878,-0.053 -1.84,0.728 -2.437,1.066 -0.446,0.25 -5.977,1.035 -6.93,0.76 -1.144,-0.33 -1.538,-1.14 -2.286,-1.828 h -0.228 c -0.67,0.602 -1.078,1.463 -2.438,1.447 -0.246,-0.514 -0.816,-0.955 -1.066,-1.448 -0.414,-0.815 -0.424,-1.55 -0.838,-2.36 m 4.57,-0.686 c 0.223,0.21 2.167,1.458 2.36,1.523 1.04,0.34 6.667,-0.632 7.008,-0.99 -0.232,-0.31 -0.35,-0.594 -0.456,-1.067 h 0.152 c 1.326,-0.58 3.044,3.066 5.027,-0.61 1.323,0.42 3.646,2.415 5.255,1.6 3.2,-1.623 3.884,-6.65 3.884,-12.035 0,-1.754 0.292,-4.285 -0.304,-5.56 v -2.055 c 0,-1.314 -0.15,-4.11 -0.685,-5.177 l -0.077,-2.133 c -0.448,-1.822 -0.816,-3.72 -1.446,-5.18 -7.71,-1.087 -12.79,1.33 -16.15,6.018 -0.613,0.858 -3.178,4.11 -2.283,5.864 1.89,-0.07 4.39,-3.038 5.788,-3.884 0.077,-0.046 1.295,-0.305 1.295,-0.305 6.28,-0.617 2.412,4.465 2.362,7.236 0.857,0.605 3.353,2.89 4.722,2.13 l 0.457,-0.53 c 1.85,0.032 6.08,3.098 3.962,5.406 -0.72,0.786 -2.08,1.22 -2.97,1.83 -1.21,0.825 -2.42,2.18 -3.657,3.122 -0.082,0.062 -0.67,0.217 -0.38,0.38 -1.278,0.703 -3.018,1.25 -4.42,2.132 -0.916,0.578 -2.77,-0.11 -3.502,0.076 -0.445,-0.83 -1.878,-2.402 -1.066,-4.036 0.365,-0.676 1.444,-1.53 2.056,-1.98 -0.026,-0.617 -0.147,-0.684 -0.685,-0.61 -0.902,1.05 -3.4,-1.483 -3.58,-1.98 v -2.132 c 0.72,-0.422 1.126,-0.986 1.903,-1.448 1.803,-1.07 5.276,-1.427 4.344,-4.646 -0.15227,-0.02574 -0.3046,-0.05107 -0.457,-0.076 -1.15,1.096 -5.58,0.747 -6.55,2.285 -0.645,0.534 0.02,2.41 -0.534,3.35 -0.564,-0.046 -0.32,1.34 -0.686,1.982 -1.163,2.033 0.183,6.387 -0.304,8.682 -0.205,0.965 -0.345,2.16 -0.38,2.82 m 4.722,-11.502 c 0.152,0.076 0.304,0.15 0.457,0.228 0.797,-0.234 1.17,-0.796 1.75,-1.218 v -0.686 h -0.152 c -0.126,-0.026 -0.253,-0.053 -0.38,-0.078 -0.535,0.673 -1.184,0.956 -1.675,1.753 m 5.178,-1.753 c 0.026,0.153 0.05,0.306 0.077,0.458 h 0.152 l 0.23,0.076 c 0.15,-0.178 0.304,-0.355 0.456,-0.534 0.017,-0.4 0.07,-0.53 -0.077,-0.837 l -0.15,-0.23 c -0.077,0.052 -0.152,0.103 -0.23,0.154 -0.15,0.304 -0.304,0.608 -0.457,0.912 m 5.028,1.83 c 0.41,0.408 0.55,1.237 0.915,1.674 l 0.303,-0.076 c 0.125,-0.623 0.954,-2.188 0.23,-2.742 l -0.23,-0.305 c -0.42,-0.01 -0.675,0.035 -0.912,0.153 -0.06,0.644 -0.266,0.582 -0.305,1.295 m 29.248,11.044 c 0.026,-1.396 0.05,-2.793 0.077,-4.19 1.04,-0.268 6.453,-7.448 7.312,-8.757 -0.19,-0.113 -0.256,-0.138 -0.61,-0.153 -0.505,0.332 -5.268,1.945 -6.17,1.143 l -0.227,-0.152 c -0.026,-3.34 2.623,-4.912 4.493,-6.246 1.377,-0.984 2.203,-2.163 3.352,-3.506 1.166,-1.362 4.22,-3.496 4.95,-5.33 0.334,-0.838 0.39,-2.1 0.38,-3.2 1.83,-0.555 3.24,-0.15 4.42,0.762 -1.208,4.506 -8.704,9.686 -12.112,12.872 -0.816,0.763 -1.748,1.155 -2.437,2.057 l 0.152,0.228 c 1.224,0.03 2.98,-0.573 3.96,-0.99 l 4.038,-0.457 c 1.11,-0.667 0.927,-1.605 1.6,-2.742 0.895,-1.515 1.57,-3.186 3.122,-4.265 h 2.057 c 0.237,0.437 0.707,0.626 0.99,0.99 0.666,0.855 1.065,1.97 1.675,2.817 0.73,-0.51 2.423,-2.16 1.752,-3.428 -0.348,-0.657 -1.163,-1.105 -0.686,-1.982 0.096,-0.773 2.01,-1.634 2.894,-1.598 0.105,0.948 0.978,2.056 1.677,2.438 1.59,0.68 1.138,-1.322 1.447,-2.363 0.65,-2.19 -0.675,-7.187 2.285,-7.16 0.167,0.355 1.532,1.35 1.903,1.753 h 0.152 c 0.476,1.013 0.85,1.515 1.448,2.36 0.617,0.872 1.284,2.875 1.523,4.038 0.216,1.053 -0.917,1.645 -0.457,2.818 0.616,1.572 2.427,2.507 3.198,3.96 0.452,0.853 0.267,1.933 0.838,2.438 1.11,0.982 2.408,1.342 3.428,2.514 v 0.837 c -0.496,0.217 -1.022,0.717 -1.523,0.99 -0.677,0.37 -1.68,0.277 -2.133,0.382 -1.72,0.396 -3.873,0.996 -4.798,2.208 -0.675,0.882 -0.647,5.072 -1.068,6.474 l -0.076,1.752 c -0.536,0.97 -0.8,2.547 -1.066,3.58 v 0.913 c -0.933,1.815 -1.445,3.6 -2.36,5.18 l -0.153,1.98 -0.23,-0.075 c -0.274,-0.584 -0.976,-0.935 -1.293,-1.45 -0.545,-0.88 -0.704,-1.916 -1.067,-2.818 v -1.6 c -0.483,-1.95 -0.034,-5.948 -0.382,-8.68 -0.198,-0.067 -0.265,0.03 -0.15,-0.153 -2.345,0.51 -4.317,1.02 -6.323,1.903 l -3.275,0.076 c -1.186,-1.025 -0.976,-4.264 -0.458,-5.864 1.03,-0.366 2.693,-1.678 3.123,-2.665 l 0.075,-0.84 c 1.274,-1.845 3.29,-3.35 2.286,-6.473 l -0.153,-0.076 c -3.414,2.37 -2.77,4.633 -4.95,7.692 -1.48,2.078 -2.636,2.067 -3.732,5.028 -0.974,2.632 1.3,6.487 1.295,8.53 -0.353,0.15 -0.5,0.45 -0.76,0.685 h -0.764 c -0.732,-1.14 -1.443,-2.068 -2.133,-3.427 -0.468,-0.923 -0.17,-2.11 -0.61,-2.97 -0.177,0.026 -0.355,0.05 -0.533,0.077 -1.49,2.338 -4.603,3.815 -8.53,3.81 -0.14,-0.325 -0.48,-0.364 -0.61,-0.612 l -0.076,-1.066 m 6.474,-4.722 c 1.075,-0.26 5.76,-3.165 3.505,-4.493 h -0.534 c -0.503,1.843 -2.37,2.625 -2.97,4.492 m 3.275,-9.14 0.533,0.458 h 0.99 c 0.232,-0.2 0.308,-0.308 0.382,-0.686 l -0.61,-0.38 c -0.022,0.137 -1.133,0.284 -1.294,0.38 v 0.23 z m 3.58,3.2 c 0.312,0.11 0.245,0.135 0.533,0 0.414,-0.647 4.327,-3.857 3.353,-4.647 -2.818,-1.202 -3.967,2.21 -3.885,4.646 m 1.752,-6.7 c 0.2,0.097 0.265,0.13 0.61,0.15 0.906,-0.384 1.15,-0.943 1.75,-1.6 l -0.076,-0.76 -0.914,0.076 c -0.658,0.385 -1.307,1.178 -1.37,2.133 m 7.463,8.834 c 1.23,0.587 3.164,-0.887 3.81,-1.524 -0.078,-0.33 -0.153,-0.66 -0.23,-0.99 -0.15,-0.126 -0.305,-0.252 -0.457,-0.38 -0.803,0.54 -2.57,1.685 -3.123,2.437 z m 2.895,-8.76 c 0.28,0.346 0.457,0.458 0.915,0.23 0.04,-0.587 0.192,-0.51 0.304,-0.99 -0.0764,-0.101366 -0.1524,-0.203033 -0.228,-0.305 -0.23,0.1 -0.458,0.202 -0.687,0.304 -0.127,0.378 -0.23,0.288 -0.305,0.76 m 8.226,3.81 c 0.238,-0.02 0.585,-0.16 0.762,-0.458 0.154,-0.358 0.003,-0.502 -0.23,-0.685 -0.075,0.052 -0.15,0.102 -0.227,0.153 l -0.306,0.99 m 20.336,5.713 v -3.123 c 1.82,-0.28 2.73,-1.91 3.58,-3.2 1.082,-1.638 4.017,-3.735 6.018,-4.95 0.59,-0.36 4.412,-2.295 4.112,-2.438 0.747,-0.37 3.918,-1.767 4.037,-2.59 l -0.076,-0.15 c -0.48,-0.133 -3.05,-1.145 -3.426,-1.447 -0.402,-0.323 -0.732,-1.07 -1.067,-1.22 v -0.38 c 2.114,0.606 6.63,-0.28 7.692,-1.067 0.62,-0.458 1.403,-1.103 2.285,-1.37 1.07,-0.324 4.84,1.73 5.407,2.21 l -0.074,1.14 c -0.477,0.217 -1.093,0.753 -1.525,1.068 h -0.61 c -1.24,0.4 -5.037,1.4 -5.94,2.36 0.05,0.23 0.1,0.458 0.153,0.686 0.456,0.23 0.913,0.457 1.37,0.686 l 1.296,0.075 c 1.654,0.883 6.635,7.433 3.122,10.055 -0.35,0.26 -3.28,1.22 -2.97,1.37 -1.436,0.55 -2.99,-0.586 -3.657,0.686 l -0.076,2.21 c -0.548,1.086 -1.96,2.388 -2.817,3.274 -0.036,0.51 -0.067,0.694 0.305,0.838 0.192,0.413 0.902,0.518 1.448,0.534 0.335,-0.416 0.51,-0.562 0.685,-1.22 2.68,-0.023 3.965,0.975 6.17,1.448 0.25,0.543 1.002,2.1 0.838,2.513 -0.32,0.376 -0.62,0.9 -1.066,1.143 -2.218,0.6 -3.128,-1.67 -4.875,-1.372 -0.182,-0.225 -1.277,0.83 -1.372,1.143 -0.15,0.502 0.21,1.038 0.306,1.296 v 1.52 c 0.33,1.96 -0.493,3.442 -1.904,4.114 -1.753,0.84 -6.39,-0.486 -7.464,-1.064 0.023,-0.278 -1.99,-1.37 -2.513,-1.448 l 0.075,-0.153 c 2.175,-0.438 6.042,-0.91 7.616,-2.056 0.348,-0.252 2.262,-1.427 1.373,-1.98 -0.905,-0.373 -3.353,-0.078 -4.114,0.306 -0.892,0.446 -4.7,-0.616 -4.875,-0.763 -0.3468,-0.278852 -0.60981,-0.648105 -0.76,-1.067 0.108,-0.222 0.12,-0.23 0.15,-0.38 2.45,0.016 5.998,-0.403 8.302,-0.838 l 0.457,-0.61 v -0.305 c -0.39,-0.31 -0.5,-0.49 -1.066,-0.686 -0.01,-1.02 -0.09,-2.106 0.38,-2.894 0.47,-0.782 1.875,-2.586 1.677,-3.58 -0.114,-0.25 -0.222,-0.4 -0.457,-0.533 -2.08,-0.83 -4.368,3.45 -5.56,2.21 0.114,-1.33 0.344,-2.926 1.142,-3.81 1.307,-1.448 4.763,-1.383 6.017,0 1.44,0.036 2.035,-0.584 2.894,-1.066 1.053,-0.59 2.512,-0.99 3.125,-1.98 0.07,-0.11 0.06,-0.445 0.228,-0.228 1.46,-2.612 -2.41,-5.08 -3.81,-5.484 -2.57,-0.74 -5.68,2.33 -6.55,3.504 -1.76,2.382 -5.05,4.022 -7.006,6.475 -0.826,1.035 -0.64,2.48 -1.142,3.883 -0.288,0.798 -0.828,1.73 -1.22,2.438 -1.584,0.218 -3.266,-0.762 -3.884,-1.905 -0.354,-0.657 0.058,-1.34 -0.38,-1.827 m 3.885,-17.214 c -0.016,-1.593 0.03,-2.976 0.61,-4.19 -0.05,-0.557 -0.103,-1.116 -0.153,-1.675 0.476,-0.055 2.132,-0.457 2.132,-0.457 1.11,1.952 0.96,4.27 2.514,5.866 v 2.284 c -0.396,0.17 -0.804,0.778 -1.143,1.066 -2.473,0.044 -3.278,-1.383 -3.96,-2.894 m 15.766,-0.304 0.306,0.228 0.228,-0.152 v -0.381 l -0.228,-0.075 -0.152,0.075 c -0.05,0.102 -0.102,0.203 -0.153,0.305 m 0.61,-0.38 0.686,-0.458 c -0.025,-0.422 -0.052,-0.393 -0.23,-0.61 h -0.075 l -0.15,0.077 c -0.122,0.38 -0.038,0.66 -0.23,0.99 m 23.384,23.458 v -1.523 c 0.87,-0.463 1.38,-1.462 2.133,-2.056 -0.2806,-0.726917 -0.38511,-1.509936 -0.305,-2.285 0.625,-0.006 2.71,0.46 4.036,0 1.21,-0.42 6.332,-2.173 6.855,-3.046 0.608,-1.015 -0.017,-3.937 0.458,-4.95 0.313,-0.667 1.747,-2.688 1.295,-3.58 -1.254,-1.58 -6.268,1.658 -6.246,-2.36 0.207,-0.043 0.157,-0.05 0.38,-0.23 0.736,-0.01 1.474,0.137 1.98,0.38 1.268,-0.55 4.954,-1.87 5.714,-3.122 1.15,-1.9 0.572,-4.2 2.36,-5.712 1.38,-0.142 2.513,0.142 3.657,0.684 -0.743,2.393 -2.61,3.47 -3.656,5.638 -0.737,1.528 -0.862,4.492 -1.143,5.94 v 1.524 c -0.17,-0.006 -0.638,1.9 -0.684,2.284 l 0.23,0.23 0.38,-0.077 h 0.152 c 0.318,-0.252 0.797,-0.71 0.914,-1.142 v -0.837 c 0.223,-0.39 0.72,-0.737 0.914,-1.143 1.53,0.042 3.476,-0.377 3.96,-1.22 0.51,-1.08 0.033,-3.314 0.458,-4.188 0.44,-0.906 1.083,-3.032 1.37,-4.037 0.594,-2.073 -1.754,-3.928 -0.457,-4.95 0.948,-1.05 2.95,0.405 3.43,0.914 1.01,1.076 -0.112,2.31 0.38,3.73 0.4,1.165 2.715,2.07 3.732,2.59 l 3.502,0.457 0.228,0.305 -0.076,0.837 c -0.833,1.503 -3.304,2.456 -4.417,3.275 -0.834,0.614 -1.342,1.843 -2.21,2.36 -1.154,0.692 -2.502,0.42 -3.2,1.524 -0.023,0.254 -0.05,0.508 -0.075,0.76 -0.464,-0.077 -0.352,0.794 -0.304,1.067 1.007,0.433 4.478,1.056 4.95,1.83 0.986,1.61 0.87,5.053 0.38,7.31 -0.146,0.68 -0.476,1.37 -0.303,2.362 4.08,1.308 9.995,4.658 4.8,8.987 -4.08,0.015 -4.09,-2.33 -7.086,-3.428 -0.625,-0.23 -2.702,0.742 -3.047,0.913 -0.457,0.024 -0.914,0.05 -1.372,0.076 -1.87,0.617 -4.22,1.06 -6.09,0.61 -0.593,-1.295 -1.634,-2.618 -2.59,-3.505 h -0.077 l -0.228,0.228 c 0.017,1.862 1.632,4.26 0.61,6.017 -0.293,-0.14 -0.84,-0.034 -1.22,-0.227 -1.037,-0.528 -1.377,-1.695 -1.98,-2.666 -0.1516,-0.508553 -0.30393,-1.016887 -0.457,-1.525 -0.686,-0.61 -1.37,-1.22 -2.056,-1.827 -0.474,-0.566 -0.28,-1.883 -0.838,-2.362 -0.747,-0.64 -4.92,2.18 -6.932,1.296 -1.082,-0.477 -1.667,-1.36 -2.208,-2.135 m 14.7,-1.218 0.762,2.59 c 1.198,2.177 5.323,3.46 8.15,1.828 0.377,-1.172 -3.04,-6.053 -4.038,-6.855 h 2.895 c 0.662,0.397 4.76,1.758 5.028,1.6 0.81,-0.67 0.982,-6.29 0.304,-6.704 -0.295,-0.174 -0.603,-0.138 -0.99,-0.075 -0.407,0.81 -1.153,2.172 -1.904,2.82 h -0.38 c -0.62,-0.956 -1.234,-1.848 -1.753,-3.048 -0.502,-1.16 0.263,-3.08 -0.152,-4.037 -3.122,-0.42 -3.057,1.908 -4.34,3.504 -1.823,2.264 -3.61,4.454 -3.58,8.377 m 12.414,-17.213 c 0.208,0.17 0.144,0.178 0.532,0.23 0.965,-0.428 3.377,-0.93 3.885,-1.83 v -0.99 c -0.498,-1.067 -1.777,-2.038 -2.666,-2.742 h -0.152 c -0.6,1.136 -1.574,3.74 -1.6,5.332 m 26.203,22.545 c 0.053,-1.23 0.672,-2.34 0.915,-3.504 0.157,-0.764 -0.263,-1.824 -0.23,-2.514 1.877,-0.33 4.425,-4.695 6.018,-6.017 0.644,-0.536 1.718,-1.347 2.514,-1.6 l 0.99,0.152 c 1.197,0.248 2.248,-0.164 2.894,-0.457 0.025,-0.457 0.036,-0.978 -0.15,-1.218 -0.068,-0.152 -0.447,-0.775 -0.534,-0.61 -0.64,0.027 -1.14,0.66 -1.676,0.99 h -1.143 c -2.22,0 -3.69,-2.128 -3.2,-4.493 2,0.61 5.352,0.592 7.008,-0.61 0.38,-2.92 0.685,-7.11 1.752,-9.445 0.4,-0.872 -0.528,-3.08 0.076,-4.723 h 1.22 l 0.684,0.99 c 0.204,0.517 1.24,6.11 1.067,6.626 -0.31,0.93 -1.414,4.233 -0.99,5.104 0.05,0.102 0.1,0.203 0.152,0.305 1.56,0.014 3.36,-0.984 3.885,-2.285 0.393,-0.974 -0.473,-1.354 -0.304,-1.904 h 0.38 c 0.86,0.496 4.156,0.957 5.41,1.142 v 1.524 c -0.18,0.1 -0.12468,-0.236818 -0.30168,-0.134818 l -0.46232,0.134818 c -2.146,0.74 -6.965,2.934 -7.463,4.57 -0.533,-0.024 -1.217,-0.05 -1.525,0.152 -1.56,0.923 -0.343,3.257 -0.914,5.255 -0.17,0.597 -0.444,1.442 -0.303,2.21 0.28,0.025 0.558,0.05 0.838,0.077 1.027,-1.912 3.806,-2.713 5.864,-1.067 1.706,1.365 0.39,2.725 1.065,4.722 0.397,1.17 1.648,1.8 2.133,3.35 0.026,0.086 0.208,0.414 0.304,0.23 1.31,3.66 -3.9,3.647 -5.864,3.504 -0.237,-0.457 -0.803,-0.956 -0.99,-1.447 -0.81,-2.14 -0.76,-5.007 -2.742,-5.943 -3.252,2.343 0.492,7.365 -1.066,11.35 h -0.077 c -0.378,-0.365 -1.058,-0.4 -1.446,-0.762 -0.97,-0.897 -1.673,-2.597 -2.134,-4.267 -0.465,-1.682 1.007,-3.116 0.534,-4.112 -0.188,-0.114 -0.256,-0.21 -0.38,-0.38 -1.338,-0.068 -3.432,0.482 -3.885,1.6 -0.276,0.68 -0.066,1.163 -0.382,1.827 -0.56,1.18 -2.648,4.472 -3.732,5.027 -0.914,0.292 -1.924,-0.264 -2.512,-0.76 0.408,-1.284 -0.573,-2.458 -1.295,-2.59 m 8.377,-7.694 c 0.67,0.284 1.563,0.28 2.135,-0.076 0.533,-0.335 1.054,-0.034 1.446,-0.458 0.858,-0.924 0.016,-3.62 -0.914,-4.035 h -0.686 l -1.903,4.416 c -0.026,0.052 -0.05,0.102 -0.078,0.153 m 13.255,-25.363 v -1.066 l 0.38,-0.305 c 2.978,0.328 8.692,0.72 8.607,4.722 -1.216,1.94 -1.714,3.437 -4.8,2.437 -0.236,-0.504 -0.523,-1.208 -0.76,-1.675 -0.433,-0.1 -0.865,-0.203 -1.296,-0.305 0.04,-1.356 -1.39,-3.5 -2.132,-3.807 m 25.744,15.766 0.228,-0.61 c 1.177,0.12 2.44,0.417 3.58,0.76 1.372,0.416 5.946,-1.328 6.245,-1.903 0.767,-1.33 0.575,-9.2 0,-10.435 -0.525,-1.126 -1.36,-1.483 -1.37,-3.275 1.126,-0.463 1.096,-0.634 2.97,-0.61 2.065,1.45 2.132,4.69 2.132,8.15 0,1.18 -0.345,4.805 -0.153,4.95 0.957,0.284 4.404,-1.102 5.026,-1.522 0.108,-1.16 -0.332,-1.666 -1.143,-2.285 l 0.077,-1.142 0.457,0.076 c 0.66,0.356 1.21,1.13 1.904,1.37 1.87,0.65 3.76,0.242 5.56,0.762 0.113,0.323 0.178,0.24 0.306,0.534 v 1.37 c -0.425,0.19 -0.53,0.76 -0.915,0.99 -0.514,0.31 -2.01,0.16 -2.664,0.382 -1.78,0.603 -8.58,3.323 -9.825,4.646 -0.76,0.81 -0.354,2.295 -0.76,3.504 -1.122,3.32 -3.424,10.42 -7.998,8.605 l -0.99,-0.075 c -0.646,-0.377 -1.186,-1.084 -1.83,-1.447 0.027,-0.304 0.053,-0.61 0.078,-0.914 0.524,-0.222 1.175,-1.153 1.522,-1.294 1.174,-0.472 2.33,-0.29 3.275,-0.76 1.228,-0.612 3.72,-4.887 3.276,-6.247 -1.912,-0.328 -4.28,0.014 -6.398,0 -0.55,-0.806 -1.497,-1.35 -2.057,-2.134 -0.304,-0.428 -0.277,-0.99 -0.532,-1.447 m 13.633,9.977 c -0.03,-0.456 -0.268,-0.27 0,-0.457 0.28,-1.626 3.085,-2.553 4.798,-1.447 2.275,1.468 6.342,4.355 5.94,8.302 -1.688,0.798 -1.723,2.543 -4.34,2.437 -0.21,-0.557 -1.015,-1.097 -1.372,-1.6 -0.15,-0.634 -0.304,-1.27 -0.457,-1.903 -0.678,-1.63 -3.045,-5.202 -4.57,-5.333 m 41.205,-1.447 c -0.023,-3.597 2.882,-2.86 5.484,-3.657 1.167,-0.357 3.244,-1.356 4.036,-2.21 0.41,-0.44 0.564,-1.166 0.99,-1.597 -0.15,-0.236 -0.25,-0.71 -0.382,-0.99 -0.564,-0.3 -1.347,-0.897 -1.826,-1.067 -0.764,-0.272 -1.583,-0.063 -2.21,-0.382 -3.7,0.348 -9.273,3.352 -10.51,5.864 l -0.077,1.98 c 0.616,0.366 1.08,0.98 1.45,1.6 -0.107,1.638 -0.06,3.56 -1.906,3.656 -0.48951,-0.310981 -0.94825,-0.66793 -1.37,-1.066 -0.618,0.492 -0.876,0.584 -1.828,0.38 -0.504,-0.96 -2.846,-6.474 -2.59,-7.31 0.28,-0.814 1.677,-1.065 2.284,-1.372 1.47,-0.745 2.543,-2.492 3.81,-3.503 0.664,-0.532 1.508,-0.36 2.36,-0.762 2.004,-0.947 3.454,-3.203 5.103,-4.875 1.8,-1.824 4.453,-2.115 5.94,-4.19 l -0.15,-0.304 h -0.076 c -1.128,1.03 -4.485,3.35 -6.704,1.752 -0.73,-0.526 -0.72,-1.88 -1.218,-2.666 -0.31,-0.49 -1.062,-0.68 -1.143,-1.37 0.127,-0.356 0.254,-0.71 0.38,-1.068 1.488,-0.013 4.318,1.987 5.18,2.82 2.086,-0.663 4.22,-1.294 6.246,-2.438 0.775,-0.438 1.968,0.485 2.285,0.228 1.006,0.732 2.536,4.66 0.532,5.485 -0.93,0.277 -2.428,0.203 -3.427,0.456 -2.416,0.61 -5.43,2.14 -7.007,3.73 l 0.078,0.154 h 0.152 c 0.9,0.26 2.545,-0.34 3.732,0.23 2.81,1.347 6.386,2.48 6.322,6.93 -0.55,0.21 -0.87,0.746 -1.447,0.99 -1.464,0.616 -2.953,0.52 -4.114,1.295 v 0.457 c 0.306,0.404 0.617,0.823 0.61,1.827 -0.462,0.31 -0.355,0.922 -0.685,1.37 -1.13,1.534 -2.725,2.772 -3.2,4.57 l 0.84,0.915 c 2.088,0.79 11.288,-4.196 9.976,1.294 -0.184,0.774 -0.69,1.127 -0.914,1.752 -1.114,0.014 -1.608,-0.197 -2.36,-0.38 -1.306,-0.32 -5.445,1.163 -6.17,1.674 0.218,1.408 0.378,2.732 0.38,4.57 -0.37,0.19 -0.445,0.633 -0.762,0.837 -0.686,0.444 -1.443,0.433 -2.208,0.762 -0.45,0.194 -1.33,0.844 -1.98,1.067 -4.39,1.508 -8.832,-2.493 -9.826,-5.407 0.025,-0.027 0.05,-0.052 0.077,-0.078 1.243,0.015 3.03,1.432 4.265,2.058 l 1.752,0.075 c 3.284,0 5.34,-1.33 6.78,-3.35 l -0.078,-0.763 c -0.178,-0.1 -0.356,-0.203 -0.533,-0.305 -1.805,-0.76 -4.91,0.99 -6.398,1.22 -1.573,0.242 -5.172,0.17 -6.4,-0.61 -0.31,-0.2 -0.552,-0.736 -0.76,-0.837 v -0.992 l 0.988,-0.76 h 6.55 c 0.653,-0.193 1.46,-0.858 2.06,-1.068 0.94,-0.327 1.91,-0.22 2.74,-0.38 0.128,-0.152 0.253,-0.303 0.38,-0.458 -0.052,-0.596 -0.602,-1.32 -0.304,-2.207 0.54,-1.61 1.2,-2.68 1.98,-4.266 -0.183,-0.244 -0.376,-0.4 -0.685,-0.305 -1.353,0.097 -2.444,0.985 -4.495,0.99 m -7.844,-22.012 0.076,-1.904 c 1.923,-0.532 0.704,-4.8219998 2.653,-5.5349998 h 0.646 c 0.204,0.76 0.8,1.7539998 1.042,2.5629998 v 1.676 c 0.684,3.127 0.223,4.478 -0.382,7.158 -2.975,0.368 -2.706,-2.175 -4.035,-3.96" />
    <path
       style="fill:#004daa;fill-opacity:1"
       fill="#034ea1"
       id="path46"
       d="M43.768 23c12.147 0 21.998 9.852 21.998 22 0 12.147-9.85 22-21.998 22-12.148 0-22-9.853-22-22 0-12.148 9.852-22 22-22m15.76 43.688c-4.74 3.443-10.724 3.936-15.758 1.825-5.036 2.113-11.02 1.62-15.76-1.823s-7.057-8.983-6.605-14.422c-3.565-4.138-4.947-9.982-3.136-15.554 1.81-5.57 6.362-9.485 11.676-10.738 2.832-4.668 7.963-7.787 13.822-7.787 5.857 0 10.988 3.117 13.82 7.785 5.316 1.25 9.868 5.167 11.68 10.738 1.81 5.57.427 11.415-3.137 15.55.454 5.442-1.863 10.983-6.602 14.425" />
    <path
       style="fill:#004daa;fill-opacity:1"
       fill="#034ea1"
       fill-rule="nonzero"
       id="path48"
       d="M40.36 42.227c0 .23.058.407.175.536a.572.572 0 0 0 .44.192c.17 0 .314-.062.426-.185.113-.123.17-.3.17-.534a.694.694 0 0 0-.172-.49.566.566 0 0 0-.435-.186c-.204 0-.355.07-.454.21-.102.142-.15.293-.15.457m.075-1.86a.52.52 0 0 0 .14.388.51.51 0 0 0 .376.14.515.515 0 0 0 .38-.14.526.526 0 0 0 .14-.39.504.504 0 0 0-.138-.375.504.504 0 0 0-.373-.14.523.523 0 0 0-.383.14.51.51 0 0 0-.142.377m-.17.84a.964.964 0 0 1-.47-.376.978.978 0 0 1-.146-.522c0-.323.11-.59.337-.802.226-.212.548-.317.964-.317.414 0 .734.104.962.316.228.21.342.48.342.802 0 .2-.053.38-.157.538a.998.998 0 0 1-.44.36c.24.095.423.237.548.423.125.185.188.398.188.642 0 .4-.128.726-.383.976-.256.252-.596.377-1.02.377-.396 0-.724-.104-.987-.31-.31-.246-.465-.583-.465-1.01 0-.233.06-.45.175-.645.117-.197.3-.348.55-.454m-4.41 1.225l.828-.084a.71.71 0 0 0 .212.445.567.567 0 0 0 .843-.046c.12-.142.18-.355.18-.638 0-.266-.058-.466-.18-.6a.595.595 0 0 0-.464-.2c-.238 0-.452.106-.642.317l-.676-.098.427-2.26h2.2v.78h-1.57l-.13.737a1.25 1.25 0 0 1 .568-.14c.37 0 .683.135.938.403.257.27.386.617.386 1.046 0 .358-.103.678-.31.958-.284.383-.675.573-1.176.573-.4 0-.727-.106-.98-.32a1.325 1.325 0 0 1-.453-.87m-1.82-1.704c0-.27-.062-.478-.186-.625-.123-.148-.267-.22-.428-.22a.478.478 0 0 0-.385.18c-.1.122-.153.322-.153.598 0 .28.056.486.166.616.11.13.25.198.415.198a.52.52 0 0 0 .405-.19c.11-.126.164-.31.164-.556m-1.884 1.818l.805-.09c.02.165.073.286.155.365a.46.46 0 0 0 .328.117c.173 0 .318-.08.44-.237.12-.157.196-.485.23-.982a.99.99 0 0 1-.784.364c-.342 0-.638-.133-.885-.395-.248-.264-.372-.607-.372-1.03 0-.44.13-.795.393-1.065.26-.27.594-.403.998-.403.44 0 .802.17 1.085.51.283.34.425.9.425 1.68 0 .795-.148 1.366-.44 1.718-.296.35-.68.527-1.15.527-.34 0-.615-.09-.824-.27-.208-.182-.342-.452-.402-.81m-1.598 1.003h-.832V40.41a2.85 2.85 0 0 1-1.075.632v-.755a2.41 2.41 0 0 0 .708-.404c.256-.2.43-.43.524-.694h.676v4.358z" />
    <path
       style="fill:#004daa;fill-opacity:1"
       fill="#034ea1"
       id="path50"
       d="M43.768 7.876c13.416 0 25.172 7.12 31.695 17.79A36.94 36.94 0 0 1 80.89 45c0 20.5-16.623 37.123-37.122 37.123C23.268 82.123 6.644 65.5 6.644 45c0-20.5 16.625-37.124 37.124-37.124m0-1.375c21.257 0 38.498 17.24 38.498 38.5 0 21.258-17.24 38.5-38.498 38.5-21.26 0-38.5-17.242-38.5-38.5 0-21.26 17.24-38.5 38.5-38.5" />
    <path
       style="fill:#004daa;fill-opacity:1"
       fill="#034ea1"
       fill-rule="nonzero"
       id="path52"
       d="M76.562 46.078l-.873-.016c.085.26.157.44.22.537.11.17.25.26.423.263.277.003.418-.117.42-.36.004-.123-.06-.268-.19-.425m.248-.8l.167.203c.06.08.087.16.086.236-.004.205-.132.318-.385.342.098.113.183.24.258.38.074.142.11.254.11.337a.54.54 0 0 1-.156.375.458.458 0 0 1-.354.156c-.293-.006-.52-.175-.68-.508a5.675 5.675 0 0 1-.292-.738l-.184-.002c-.363-.006-.546.1-.55.32-.005.247.063.374.203.376a.67.67 0 0 0 .09-.006.875.875 0 0 1 .11-.005c.063 0 .12.025.165.068a.2.2 0 0 1 .07.162.23.23 0 0 1-.057.16.18.18 0 0 1-.135.057c-.18-.005-.323-.098-.43-.284a1.012 1.012 0 0 1-.13-.532c.005-.266.06-.453.17-.565.118-.122.32-.18.606-.175l1.1.02c.13 0 .195-.038.195-.117.002-.06-.032-.14-.1-.243l.126-.016zm.12 2.486l-.128 1.046-.07-.01c.026-.208-.067-.325-.278-.35l-1.248-.154c-.122-.015-.22.01-.29.072a.397.397 0 0 0-.127.254c-.023.183.05.376.218.58l1.333.165c.213.025.33-.066.357-.275l.07.01-.13 1.045-.07-.008c.026-.21-.066-.325-.277-.352l-1.343-.165c-.106-.013-.175 0-.21.04-.035.037-.057.12-.065.242l-.07-.007-.143-.762.406.05c-.244-.262-.348-.535-.313-.82.047-.378.32-.537.823-.477l1.13.14c.21.024.33-.067.355-.274l.07.008zm-.412 2.753l-.206 1.163-.07-.01c.045-.25-.038-.393-.247-.43l-1.318-.232c-.17-.03-.266.017-.29.142a.627.627 0 0 0 .008.194l-.074-.014-.124-.837 1.873.33c.208.035.334-.07.38-.32l.068.014zm-3.163-.175a.24.24 0 0 1 .164.107c.036.055.05.12.035.194a.242.242 0 0 1-.1.163c-.053.038-.116.05-.188.038a.257.257 0 0 1-.17-.1.234.234 0 0 1-.042-.19.258.258 0 0 1 .3-.213m2.873 1.78l-.273 1.017-.068-.02c.055-.202-.02-.33-.227-.386l-1.128-.3c-.3-.08-.48 0-.544.24-.052.19-.004.39.14.606l1.294.346c.205.055.334-.018.39-.22l.066.017-.27 1.018-.07-.017c.054-.203-.02-.332-.227-.387l-2.38-.64c-.112-.03-.186-.025-.22.01-.022.02-.05.1-.088.236l-.086-.026c0-.143-.007-.4-.022-.768l1.466.392c-.202-.288-.27-.557-.204-.803.108-.402.406-.54.895-.408l1.1.294c.205.056.335-.018.39-.22l.068.018zM75.04 54.66c.253.492.285.984.094 1.48-.183.476-.487.8-.912.97-.406.156-.837.148-1.294-.027a1.71 1.71 0 0 1-.97-.88 1.58 1.58 0 0 1-.04-1.293c.07-.185.17-.36.3-.53.132-.168.202-.263.21-.285.036-.082 0-.163-.104-.243l.04-.103 1.07.36-.047.12a1.166 1.166 0 0 0-.763.116c-.228.123-.39.315-.49.576-.135.348-.103.673.096.972.188.28.49.5.907.66.407.155.78.183 1.117.085.336-.1.57-.315.698-.65.11-.283.142-.56.098-.83a2.01 2.01 0 0 0-.14-.455l.13-.046zm-3.182 6.062c-.29-.16-.555-.248-.79-.262-.29-.016-.5.088-.624.31a.46.46 0 0 0 .01.48c.084.15.23.28.435.395.28.155.545.24.8.256.294.02.496-.072.608-.272.098-.178.088-.358-.03-.542a1.12 1.12 0 0 0-.41-.364m.048-.498c.29.18.483.42.573.716.09.298.055.582-.104.856a.99.99 0 0 1-.665.483 1.183 1.183 0 0 1-.868-.136c-.294-.163-.488-.38-.582-.648-.102-.285-.07-.577.097-.876.164-.297.39-.484.68-.557.288-.074.578-.02.87.16m-2.645 2.384c-.03.04-.033.106-.004.2a.86.86 0 0 0 .086.206L70.54 65c.283.47.328.828.136 1.074-.15.193-.307.225-.473.094-.046-.036-.067-.09-.058-.16a.316.316 0 0 1 .066-.157.798.798 0 0 1 .178-.128.372.372 0 0 0 .11-.095c.1-.127-.006-.403-.317-.83l-1.884-.435a.886.886 0 0 0-.253-.04c-.06.004-.124.038-.198.098l-.054-.043.632-.81.057.042c-.123.155-.148.26-.077.316.037.03.087.05.15.067l1.39.334-.717-1.12a.976.976 0 0 0-.133-.18c-.024-.018-.06-.02-.106-.004a.33.33 0 0 0-.14.115l-.055-.042.414-.53.056.04zm.103 3.863c-.1-.082-.226-.06-.38.067-.078.06-.206.2-.385.41-.14.168-.276.304-.408.41.026.234.083.39.172.463.183.155.433.043.746-.332.193-.23.308-.443.344-.642.033-.173.003-.297-.09-.376m-1.63-.686a1.146 1.146 0 0 0-.49-.247c-.198-.038-.347.002-.447.12-.084.1-.11.206-.08.316a.58.58 0 0 0 .218.296c.165.128.327.21.485.244.19.038.338-.005.443-.13.16-.192.117-.39-.13-.6m.008-.91l-.265.318c.125.02.25.085.375.19.177.15.274.33.285.537.013.206-.06.403-.215.59-.06.07-.126.133-.196.186-.032.21-.01.343.064.406.078.066.25-.06.515-.376.257-.304.464-.485.62-.54.146-.052.303-.007.467.13.172.144.23.378.175.7a1.73 1.73 0 0 1-.39.832c-.172.204-.362.328-.57.37-.17.035-.296.02-.38-.053-.072-.06-.11-.165-.11-.32a20.59 20.59 0 0 1-.013-.427.47.47 0 0 1-.197.076c-.072.01-.125 0-.16-.03-.08-.066-.126-.173-.14-.32-.008-.076-.005-.2.007-.378-.302.153-.576.13-.82-.076a.747.747 0 0 1-.277-.55c-.014-.227.066-.442.243-.652.073-.09.19-.18.346-.266.156-.087.257-.16.302-.22l.186-.254.15.127zm-1.312 2.957c-.23-.237-.457-.398-.68-.48-.274-.1-.503-.063-.686.116a.454.454 0 0 0-.132.46c.037.168.138.337.302.506.222.23.452.39.69.477.276.104.496.075.66-.084.147-.14.19-.317.13-.527a1.14 1.14 0 0 0-.284-.47m.192-.46c.226.257.338.543.337.853 0 .31-.116.573-.348.787a.995.995 0 0 1-.78.27c-.3-.022-.563-.15-.79-.385-.233-.242-.356-.505-.367-.79-.014-.302.103-.572.35-.81.243-.235.514-.347.81-.334.3.015.56.15.787.41m-1.223 2.59l-.898.78-.045-.054c.193-.17.22-.333.08-.493l-1.634-1.88c-.06-.067-.11-.103-.155-.108-.044-.006-.097.018-.16.073a1.796 1.796 0 0 0-.12.118l-.05-.057c.097-.137.25-.373.46-.704l1.98 2.28c.14.16.305.156.496-.01l.047.053zm-2.185.635c-.196-.27-.398-.458-.606-.57-.256-.138-.488-.132-.696.017a.462.462 0 0 0-.195.438c.014.172.09.353.23.544.187.257.392.45.616.57.26.14.482.144.667.008.164-.12.232-.286.202-.504a1.126 1.126 0 0 0-.218-.503m.254-.432c.188.29.26.586.216.893-.043.306-.196.55-.456.73a.993.993 0 0 1-.807.16 1.2 1.2 0 0 1-.73-.49c-.198-.273-.282-.55-.254-.834.03-.3.18-.552.46-.753.273-.2.556-.273.85-.218.292.054.533.225.72.51M62 72.627l-.91.527-.036-.06c.183-.107.22-.25.113-.435l-.63-1.09c-.06-.105-.137-.17-.23-.188a.385.385 0 0 0-.28.05c-.158.093-.27.268-.33.528l.67 1.16c.107.187.25.226.432.12l.035.062-.913.526-.034-.06c.182-.104.22-.25.112-.434l-.676-1.17c-.054-.094-.106-.142-.158-.148-.053-.004-.13.03-.234.097l-.035-.062.522-.57.205.353c.062-.35.217-.596.464-.74.33-.19.623-.068.875.37l.57.987c.106.183.25.223.43.12l.036.06zm-2.403 1.372l-.93.495-.032-.062c.185-.098.227-.24.127-.428l-.548-1.032c-.146-.274-.328-.35-.548-.234-.174.09-.29.266-.346.518l.627 1.18c.1.19.243.234.428.135l.033.062-.93.493-.033-.062c.185-.1.228-.242.128-.43l-1.158-2.177c-.055-.102-.106-.154-.156-.154-.032 0-.11.03-.233.096l-.04-.08c.104-.1.287-.278.547-.54l.713 1.34c.074-.345.222-.577.45-.698.366-.195.668-.07.906.377l.535 1.004c.1.19.242.234.426.136l.033.062zm-2.845.542c-.027.28-.075.495-.143.645a.83.83 0 0 1-.464.45.86.86 0 0 1-.728-.028c-.26-.125-.454-.35-.583-.67-.13-.32-.142-.625-.04-.91.104-.286.315-.493.632-.622a.904.904 0 0 1 .535-.055c.172.04.282.118.33.235a.207.207 0 0 1-.003.167.217.217 0 0 1-.125.12.2.2 0 0 1-.176-.005.212.212 0 0 1-.116-.113.337.337 0 0 0-.184-.193.364.364 0 0 0-.273.006.587.587 0 0 0-.383.504c-.02.182.007.366.083.554.1.244.253.428.46.55.21.126.412.148.61.067.252-.1.414-.338.486-.71l.08.01zm-3.03.313c-.156-.35-.37-.48-.64-.386-.304.104-.418.346-.342.723l.98-.337zm.81.51c.015.24-.044.47-.178.69a.982.982 0 0 1-.517.44.866.866 0 0 1-.723-.064c-.258-.138-.446-.378-.564-.72-.11-.32-.113-.62-.006-.89a.91.91 0 0 1 .58-.552c.255-.09.486-.077.694.038.208.113.354.29.437.53l-1.463.506c.102.296.26.517.474.663.214.146.426.182.638.11a.745.745 0 0 0 .38-.316.905.905 0 0 0 .16-.44l.088.004zm-2.64-.93l-.116.026c-.118-.23-.196-.363-.235-.4-.113-.11-.28-.137-.5-.086l-.448.104.6 2.596c.05.218.233.29.55.216l.023.092-1.45.336-.02-.093c.316-.074.45-.22.4-.436l-.6-2.6-.39.092c-.25.058-.407.16-.466.302-.028.064-.04.22-.036.47l-.117.026-.162-.833 2.748-.633.22.82zm-4.388 2.853l-.093-1.065a.564.564 0 0 0-.176-.39.462.462 0 0 0-.363-.12c-.208.018-.362.13-.46.337a1.205 1.205 0 0 0-.095.638c.026.292.103.53.233.71.133.192.297.28.492.262.13-.01.228-.04.296-.095a.588.588 0 0 0 .168-.276m.78.218c-.24.09-.48.208-.73.35l-.03-.358a.812.812 0 0 1-.666.418.766.766 0 0 1-.573-.196c-.223-.188-.35-.468-.384-.842-.028-.33.05-.624.233-.884.185-.262.424-.406.72-.432.22-.02.393.036.515.165l-.07-.8c-.01-.112-.04-.176-.092-.19a1.337 1.337 0 0 0-.25.01l-.01-.1c.152-.046.393-.14.73-.285l.25 2.886c.01.102.04.163.092.18.03.015.12.017.26.003l.007.074zm-2.72.402l-1.054.038-.002-.07c.21-.008.31-.12.304-.33l-.044-1.258c-.004-.124-.043-.215-.118-.276a.387.387 0 0 0-.27-.084c-.182.005-.36.107-.538.308l.047 1.342c.006.212.115.314.325.306v.07l-1.05.038-.003-.07c.21-.007.31-.117.303-.332l-.047-1.35c-.004-.107-.028-.174-.073-.203-.043-.028-.127-.036-.25-.025l-.002-.07.73-.26.014.41c.22-.283.473-.428.76-.438.38-.012.58.234.6.74l.038 1.136c.008.213.117.315.326.31l.003.068zm-3.465-.435l.075-.868a2.98 2.98 0 0 0-.552.18c-.18.1-.276.235-.29.407-.025.275.084.424.325.444.126.012.273-.044.44-.163m.78.307l-.213.15a.38.38 0 0 1-.24.07c-.203-.018-.31-.154-.317-.41-.118.09-.25.168-.395.233a.796.796 0 0 1-.344.086.55.55 0 0 1-.365-.18.473.473 0 0 1-.13-.366c.027-.292.21-.506.553-.643.232-.093.485-.172.758-.238l.016-.186c.032-.36-.062-.553-.28-.57-.25-.022-.38.037-.392.175a.553.553 0 0 0 0 .09.583.583 0 0 1-.003.11.238.238 0 0 1-.078.16.212.212 0 0 1-.167.06.23.23 0 0 1-.154-.068.186.186 0 0 1-.05-.14c.017-.18.12-.315.312-.41.164-.08.343-.11.54-.093.265.022.45.092.552.207.112.127.156.334.132.618l-.096 1.095c-.012.13.022.195.103.205.06.004.14-.023.247-.085l.01.127zm-3.875-1.708c.04-.382-.08-.6-.36-.655-.317-.062-.536.09-.66.457l1.02.197zm.445.848c-.105.215-.27.383-.497.507a.98.98 0 0 1-.666.122.865.865 0 0 1-.595-.416c-.156-.246-.2-.547-.13-.904.064-.333.21-.59.44-.775a.915.915 0 0 1 .78-.186c.263.052.457.18.58.38.124.202.16.43.113.68l-1.52-.296c-.06.306-.032.578.08.81.112.235.277.372.496.416.156.03.32.004.488-.084a.89.89 0 0 0 .36-.3l.07.048zm-2.454-.432c-.182.214-.344.364-.487.448-.2.12-.41.155-.638.102a.852.852 0 0 1-.58-.442c-.14-.25-.172-.544-.094-.88.077-.338.24-.594.49-.768.248-.177.54-.224.874-.148a.88.88 0 0 1 .47.263c.117.13.163.258.134.38a.21.21 0 0 1-.098.137.22.22 0 0 1-.17.027.21.21 0 0 1-.142-.105.215.215 0 0 1-.027-.16.332.332 0 0 0-.042-.263.35.35 0 0 0-.226-.154.586.586 0 0 0-.604.196c-.12.133-.204.3-.25.498-.058.256-.038.495.06.716.1.22.253.355.46.404.267.06.536-.042.81-.307l.058.056zm-2.452.205l-.997-.34.024-.066c.197.068.33.002.4-.2l.41-1.19c.04-.117.036-.216-.01-.3a.385.385 0 0 0-.223-.175c-.173-.062-.377-.03-.612.093l-.44 1.27c-.068.2-.003.336.195.404l-.022.066-.996-.343.022-.066c.2.068.332.002.402-.2l.44-1.278c.035-.1.037-.173.005-.216-.03-.04-.105-.08-.223-.114l.022-.066.774.018-.133.388c.307-.183.595-.227.866-.135.362.126.46.428.296.905l-.37 1.076c-.07.203-.006.338.193.406l-.023.065zm-2.664-2.606c.112-.368.036-.605-.23-.713-.298-.12-.542-.012-.732.324l.962.39zm.274.916c-.144.19-.34.324-.584.403a.964.964 0 0 1-.68-.008.86.86 0 0 1-.503-.52c-.106-.274-.09-.577.045-.915.128-.314.32-.54.58-.674a.916.916 0 0 1 .8-.038c.25.102.417.263.5.485a.923.923 0 0 1-.02.688l-1.435-.58c-.117.293-.143.562-.077.814.066.25.202.417.408.5.148.06.314.065.496.013a.89.89 0 0 0 .41-.23l.06.063zm-2.535-.195l-1.044-.555.032-.062c.223.12.385.083.485-.104l.627-1.18c.082-.154.066-.26-.045-.32a.58.58 0 0 0-.185-.052l.034-.067.838.14-.893 1.68c-.1.188-.04.34.185.458l-.033.062zm1.14-2.954a.228.228 0 0 1-.15.125.263.263 0 0 1-.195-.025.247.247 0 0 1-.126-.145.246.246 0 0 1 .022-.192.255.255 0 0 1 .15-.13.233.233 0 0 1 .193.016.264.264 0 0 1 .13.152c.02.07.012.135-.023.2M28.46 73.39c-.237.15-.435.244-.596.284a.824.824 0 0 1-.64-.09.852.852 0 0 1-.426-.59c-.06-.28-.004-.57.168-.87.173-.3.405-.498.693-.59.288-.095.58-.057.878.113.172.1.297.23.372.39.076.158.082.293.02.402a.204.204 0 0 1-.135.1.215.215 0 0 1-.17-.023.214.214 0 0 1-.106-.143.226.226 0 0 1 .02-.16.328.328 0 0 0 .037-.264.35.35 0 0 0-.172-.212.583.583 0 0 0-.634.01 1.11 1.11 0 0 0-.383.405 1.1 1.1 0 0 0-.152.703c.03.24.138.413.323.52.237.135.523.12.86-.056l.042.07zm-2.116-1.423c-.183.254-.415.387-.696.4-.248.013-.492-.066-.732-.24-.1-.073-.202-.18-.307-.324a1.476 1.476 0 0 0-.22-.262c-.066-.05-.14-.033-.217.047l-.09-.065.51-.957.09.065c-.177.6-.07 1.04.316 1.322a.62.62 0 0 0 .398.123.495.495 0 0 0 .404-.218c.165-.225.167-.52.007-.883l-.224-.507c-.186-.423-.183-.77.01-1.035.154-.21.342-.33.57-.362a.89.89 0 0 1 .658.186c.12.087.22.195.302.322.08.126.143.205.186.237.06.042.134.028.226-.04l.084.06-.535.925-.097-.07c.185-.572.1-.986-.255-1.246a.515.515 0 0 0-.36-.104.433.433 0 0 0-.325.2c-.076.104-.1.24-.072.404.02.096.073.25.16.466l.215.527c.18.435.177.78-.01 1.03m-1.298-3.65a.21.21 0 0 1-.136.07.17.17 0 0 1-.146-.035c-.073-.063-.102-.135-.087-.214l.042-.235a.21.21 0 0 0-.083-.157c-.143-.125-.3-.087-.473.11l-.416.48.455.396-.104.12-.456-.396-1.107 1.274c-.14.16-.092.342.144.547l-.044.053-.984-.854.047-.054c.203.18.377.19.517.03l1.106-1.274-.31-.27.106-.12.308.268.1-.115c.21-.242.44-.376.684-.405a.813.813 0 0 1 .645.217c.116.1.19.212.22.332.025.103.014.18-.032.234m-3.47-.16c.23-.24.384-.473.457-.696.092-.28.046-.507-.138-.684a.466.466 0 0 0-.465-.116c-.167.044-.332.15-.497.32a1.91 1.91 0 0 0-.454.707c-.094.277-.058.497.107.656.145.143.323.18.53.112.163-.052.315-.153.458-.3m.47.175a1.25 1.25 0 0 1-.84.366 1.03 1.03 0 0 1-.8-.322.99.99 0 0 1-.297-.767c.01-.3.13-.57.357-.802.233-.243.492-.376.776-.396.3-.024.576.083.822.32.244.237.364.505.36.8-.002.3-.128.564-.378.8M20.4 65.206c-.03-.04-.094-.057-.192-.053a1.032 1.032 0 0 0-.22.034l-2.217.68c-.524.16-.883.12-1.075-.126-.15-.192-.142-.353.023-.482.047-.038.104-.043.17-.02.054.022.1.056.136.103a.71.71 0 0 1 .08.204c.017.05.04.095.067.133.1.125.395.09.886-.108l.877-1.726c.062-.12.095-.2.1-.237.01-.058-.008-.13-.05-.215l.057-.044.632.81-.054.045c-.12-.156-.218-.205-.288-.15a.437.437 0 0 0-.102.13l-.66 1.267 1.26-.425a.82.82 0 0 0 .207-.086c.024-.02.034-.053.028-.1a.313.313 0 0 0-.077-.165l.056-.044.414.532-.055.043zm-3.03-.942a1.534 1.534 0 0 1-.402-.077.645.645 0 0 1-.292-.233c-.148-.21-.075-.417.217-.622l1.304-.912-.152-.216c-.008-.012-.003-.024.014-.042.018-.013.034-.016.044-.013.168.078.47.125.904.142l.106.003-.543.38.284.406-.13.09-.285-.406-1.19.835c-.226.158-.297.296-.214.415.057.08.17.135.34.165l-.007.083zm-1.28-1.246l-.627-1.002.06-.038c.133.215.29.265.47.153l1.135-.71c.147-.09.187-.19.12-.298a.627.627 0 0 0-.135-.14l.063-.038.655.538-1.61 1.008c-.182.11-.206.274-.07.49l-.06.037zm2.466-1.988a.238.238 0 0 1-.194.03.262.262 0 0 1-.156-.118.247.247 0 0 1-.037-.19.25.25 0 0 1 .115-.155c.062-.038.127-.05.194-.038.066.012.118.05.157.11a.256.256 0 0 1-.08.36m-2.88.223c-.18.1-.36.112-.54.036a.81.81 0 0 1-.385-.37 1.03 1.03 0 0 1-.094-.28 1.033 1.033 0 0 0-.084-.265c-.036-.064-.073-.085-.114-.062l-.034-.06.677-.376.04.074c-.362.308-.464.606-.306.89a.47.47 0 0 0 .213.208c.1.047.198.044.296-.01.14-.077.212-.263.217-.554l.01-.4c.006-.315.116-.532.328-.65a.584.584 0 0 1 .463-.042c.17.05.3.163.4.34.048.088.08.183.095.285.014.103.03.17.048.2.02.035.052.05.096.04l.03.056-.592.33-.04-.07c.308-.285.397-.542.267-.775a.43.43 0 0 0-.207-.19.28.28 0 0 0-.26.015c-.126.068-.193.25-.204.54l-.013.407c-.012.35-.114.576-.306.683m.37-2.28c-.146.064-.246.036-.3-.085a.258.258 0 0 1 .003-.21c.03-.074.036-.13.018-.17-.022-.052-.09-.095-.206-.127a.44.44 0 0 0-.305.01l-1.07.478c-.196.086-.24.244-.14.475l-.062.028-.48-1.075.064-.03c.1.23.25.3.445.214l1.17-.522c.177-.078.245-.18.204-.303a.484.484 0 0 0-.11-.148l.067-.03.577.617-.416.184c.358.06.577.178.655.354a.27.27 0 0 1 .012.2.22.22 0 0 1-.128.14M14.55 56.88c.346-.17.47-.387.366-.654-.117-.3-.36-.405-.737-.316l.37.97zm-.483.827a1.148 1.148 0 0 1-.693-.155.97.97 0 0 1-.456-.5.866.866 0 0 1 .037-.726c.126-.26.36-.458.7-.59.316-.12.612-.132.887-.035a.912.912 0 0 1 .574.562c.097.252.092.483-.013.695a.934.934 0 0 1-.518.455l-.555-1.444c-.292.113-.507.276-.645.497-.14.218-.17.43-.09.64a.755.755 0 0 0 .33.37.89.89 0 0 0 .446.145l-.003.087zm.41-2.624c-.027-.104-.153-.17-.378-.2l-1.925-.237c-.07-.01-.11-.023-.12-.046-.01-.02.016-.056.08-.108l1.54-1.214c.175-.14.245-.275.21-.404l.068-.017.255.946-.07.016c-.037-.144-.102-.204-.192-.18a.5.5 0 0 0-.16.08l-1.08.82 1.25.125c.107.01.19.007.254-.006.097-.024.126-.105.088-.247l.068-.02.18.672-.068.018zm-2.817-2.03l-.245-1.156.068-.014c.053.246.183.35.39.304l1.31-.277c.168-.038.24-.117.215-.24a.608.608 0 0 0-.08-.177l.074-.018.43.732-1.86.395c-.21.044-.286.19-.234.437l-.068.014zm2.998-1.024a.236.236 0 0 1-.192-.036.265.265 0 0 1-.107-.167.24.24 0 0 1 .19-.296.252.252 0 0 1 .196.03.24.24 0 0 1 .112.16.262.262 0 0 1-.036.198.254.254 0 0 1-.164.11m-3.39-.523l-.184-1.04.07-.01c.036.207.16.29.368.253l1.24-.217c.12-.022.206-.073.256-.154a.39.39 0 0 0 .047-.28c-.032-.18-.16-.344-.38-.49l-1.323.233c-.21.037-.297.158-.26.365l-.07.012-.182-1.038.07-.013c.036.206.16.29.37.255l1.33-.235c.105-.018.168-.053.19-.1.023-.047.02-.13-.008-.252l.07-.012.358.686-.403.07c.31.18.487.41.538.69.066.378-.15.61-.648.698l-1.12.2c-.21.035-.297.156-.26.363l-.07.015zm2.762-2.966c-.02-.313-.138-.46-.346-.448l-1.783.125c-.424.03-.747-.093-.97-.368-.172-.215-.27-.495-.293-.84-.027-.362.038-.654.193-.875.188-.266.5-.415.94-.445l1.737-.12c.21-.017.303-.17.282-.462l.095-.006.097 1.383-.095.008c-.02-.292-.13-.433-.33-.417l-1.803.125c-.294.02-.512.094-.655.217-.176.15-.253.387-.23.71.043.626.386.915 1.026.87l1.758-.123c.218-.015.317-.178.296-.49l.094-.006.08 1.153-.094.01zm57.173 8.777a.218.218 0 0 1 .1.116c.023.055.023.105 0 .15-.043.085-.105.13-.187.136l-.237.015a.214.214 0 0 0-.134.117c-.087.17-.012.314.222.434l.564.286.275-.54.143.075-.275.538 1.503.766c.19.098.356.007.497-.272l.062.032-.59 1.16-.062-.032c.123-.243.09-.414-.1-.51l-1.503-.765-.185.366-.143-.075.186-.364-.137-.07c-.286-.145-.47-.333-.56-.564a.813.813 0 0 1 .055-.678.678.678 0 0 1 .268-.296c.096-.047.175-.055.237-.025" />
    <path
       style="fill:#004daa;fill-opacity:1"
       fill="#034ea1"
       id="path54"
       d="M56.31 53.13c5.33-12.255.545-19.99-9.845-24.094 6.227 2.518 4.91 10.233 2.427 14.14-2.48 3.908-6.708 7.072-13.374 10.073 7.14-2.792 11.6-6.475 13.68-9.92 2.08-3.447 2.46-6.44 1.895-9.803 3.228 6.89.506 12.956-5.828 18.977 7.343-6.322 9.724-13.13 5.572-20.176 6.175 6.774 4.507 14.023.252 20.48 5.234-7.255 6.138-14.928-.805-21.522 8.348 5.11 9.534 12.095 6.025 21.844M44.615 29.663c-1.48-1.532-2.72-2.466-4.64-3.44 2.736.036 6.012.686 8.128 1.278-2.217-.256-3.21-.03-3.708.31-.495.343-.31.902.22 1.853" />
    <path
       style="fill:#004daa;fill-opacity:1"
       fill="#034ea1"
       id="path56"
       d="M44.878 57.374c.042-1.014.142-1.68 1.59-2.03 1.445-.346 3.038-.302 5.696.126 2.658.43 4.79.618 7.415.37-.89-.58-1.16-.857-1.513-1.524-2.295.047-3.815-.112-5.728-.697-1.915-.585-4.168-1.19-5.634-1.034-1.467.154-2.427.97-2.938 2.76-.512-1.79-1.473-2.606-2.94-2.76-1.465-.155-3.72.45-5.632 1.033-1.912.584-3.433.743-5.728.696-.353.667-.622.943-1.513 1.523 2.625.248 4.758.06 7.416-.37 2.66-.428 4.252-.472 5.698-.125 1.445.35 1.546 1.015 1.59 2.03h2.22z" />
    <path
       style="fill:#004daa;fill-opacity:1"
       fill="#034ea1"
       id="path58"
       d="M43.768 25.063c11.008 0 19.936 8.927 19.936 19.937 0 11.008-8.928 19.936-19.936 19.936-11.01 0-19.937-8.928-19.937-19.936 0-11.01 8.928-19.937 19.938-19.937m0-.687C55.156 24.376 64.39 33.61 64.39 45c0 11.387-9.234 20.624-20.622 20.624-11.39 0-20.625-9.237-20.625-20.624 0-11.39 9.236-20.624 20.625-20.624" />
    <path
       style="fill:#004daa;fill-opacity:1"
       fill="#034ea1"
       fill-rule="nonzero"
       id="path60"
       d="M70.31 21.803c.128.17.283.347.296.5.03.355-.878 1.034-1.358 1.388-.16.12-.492.184-.545.368.262.2.53.5.847.604l.13-.058c.065-.136.055-.27.122-.395l.17-.128c.023.028.044.057.065.086-.093.382.145.792.418 1.15.067.087.036.172.12.29-.042.057-.04.038-.015.106-.08.06-.163.12-.244.182-.088-.026-.197.015-.28-.02l-.41-.398c-.66-.348-1.32-.882-2.018-1.005-.58.417-1.823.75-2.347.568-.413-.143-.915-.94-.478-1.256.005-.003.01-.006.013-.01.128.047.28.046.41.094l.505.422c.247.137 1.07.004 1.346-.127l.046-.09c-.344-.754-.926-.643-.642-1.554.02-.066.06-.338.245-.335.048.007.074.043.115.104.076.233.19.556.387.698l.212.26c.16.11.456.37.64.378.243.008 1.563-.998 1.7-1.263.078-.155.082-.5.346-.58l.204.02m-2.98 3.902c.43.633.168 1.972-.438 2.373-.15-.093-.814-.022-.89-.382-.067-.43.315-.636.48-1.04.155-.38.083-.83.203-1.154.005.007.01.016.017.023.245-.08.405.063.627.18M77.07 29.513l.09.158c-.326.364-1.302 1.395-1.93 1.256-.4-.387.14-1.01.606-1.264.273.18.85-.132 1.233-.15m-.576 1.563c.243.458-.173.88.125 1.282.08.016.055.07.13.135.268.234.992.49.996 1.025.002.295-.535.792-.883.633-.08-.058-.59-.665-.597-.728-.372-.277-.796-.46-1.18-.673-.005.01-.012.018-.018.027.005.01.01.02.016.027.055.178.31.413.333.67.056.672.16 1.392-.57 1.786-.084-.053-.217-.074-.306-.138-.19-.135-.51-.635-.708-.558-.264.542-1.17.17-1.633.186-.078.09-.13.17-.12.28.075.133.152.265.228.397.152.117.835.625.87.957.04.385-.445.598-.764.475-.21-.39-.294-.778-.753-1.06-.145-.09-.13-.207-.28-.243-.272.156-.434.32-.76.51-.89-.417-1.603-1.064-1.324-2.172.056-.22.12-.496.335-.668.16.296.05.66.08.957l.168.324c.35.604.773.72 1.25.825.03-.022.057-.043.085-.067.016-.043.03-.087.047-.13l-.228-.397a3.7 3.7 0 0 0-.446-.377c-.262-.18-.803-1.25-.71-1.505.033-.097.133-.156.232-.206.065.02.13.043.195.064.32.217.364.81.676 1.14.183.195.592.37.708.68.057.02.107.03.166.045.335-.358.548-.3.938-.294.076 0 .327-.04.335-.09.047-.202-.38-.402-.494-.52-.05-.09-.102-.178-.153-.265.562-.385.78.168 1.187.564.168.165.427.263.615.365.173.094.507.286.668 0 .07-.124-.008-.242-.016-.395-.047-.807-1.063-1.343-1.635-1.552-.217-.08-.65-.315-.898.06 0 .08-.102.34-.102.34-.23.238-.49.193-.688.24-.073-.087-.11-.078-.182-.194a.94.94 0 0 0 .05-.31c-.112-.05-.18-.105-.242-.266.045-.193.883-1.21 1.094-1.212.465.308.896.385 1.37.58l.517.406c.377.165.808.22 1.205.323.49.125.842.563 1.332.603.01-.016.017-.033.025-.05l-.008-.013c-.327-.11-1.08-.48-.98-1 .053-.28.462-.42.39-.752l.206-.1a.23.23 0 0 0 .104.027M62.878 15.34c.395.303.808.515 1.034.948.028.053.178.444.15.438-.163.694-.882.612-1.218.193.064-.14.087-.26.014-.362l-.142-.117c.2-.392-.164-.813.162-1.1m-1.138-.588l.19.127c-.03.306-.262 1.19-.49 1.457-.148.173-.65.58-.668.793l.003.054c.327.194.702.193.92-.013.126-.115.028-.238.143-.304.16.13.8.62.815.752.008.104-.11.22-.154.264-.646-.31-1.178-.146-1.79-.067-.197.026-.31-.187-.487-.07-.262.17-.654.934-.804 1.117.013.027.028.053.042.078.444.177.858-.42 1.233.484.113.27-.167.463-.273.808-.078.25.094.613.033.917-.13.646-1.07.423-1.344.013-.188-.364.34-1.118.11-1.59-.045-.013-.09-.028-.134-.04-.65.393-.708 1.336-1.168 1.84l-.034-.004c-.383-.323-.227-.93-.003-1.426.105-.23.343-.245.358-.498-.152-.147-.487-.286-.69-.238-.184.043-.295.268-.465.38-.31.21-.776.45-1.14.485a1.05 1.05 0 0 1-.307-.352c.155-.296.097-.365.052-.637.232-.232.54-.522.67-.915.75-.1 1.458-.557 2.234-.52.278.01.457.514.765.318l.084-.146c-.01-.07-.023-.142-.035-.213-.16-.06-.28.02-.428-.02-.603-.167-.583-.83-.25-1.18l.013.007c.183.328.763.61 1.158.616a2.7 2.7 0 0 0 .405-.4l.34-.56c.228-.213.405-.38.608-.563.08-.072.303-.605.408-.767.028.004.055.01.082.012m-3.006 3.258c-.18.05-.82.437-.82.687a.05.05 0 0 1 .013.008c.66.416 1.065-.067.886-.65-.027-.014-.053-.03-.08-.045M35.71 9.965c.075.01.09.032.143.076.034.21.492.91.676.936.027.353.167.438-.098.71-.753.06-.92-.306-.954-1.118-.01-.224-.12-.324-.08-.466.104-.046.208-.09.312-.137m3.478-.512c.405-.076.872.088 1.153.18.007.068.053.166.01.232-.197.506-1.162.61-1.435 1.076.23.228.442.063.74.154.443.133 1.444 1.126 1 1.766-.12.17-.408.287-.557.43-.196.188-.61-.045-.687.334l.074.437c-.097.298-.34.484-.384.827.1.1.218.086.37.1.114-.1.105-.162.132-.297.336-.088 1.01-.086 1.267-.003.117.038.24.326.296.46-.055.072-.08.21-.185.28-.384.28-.81-.308-1.16.056-.24.252.31.792.216 1.17-.216.87-1.82.654-2.36.404l.018-.052c.59-.392 1.504-.435 1.624-1.137-.027-.022-.02-.02-.055-.033-.44-.06-.79.352-1.215.35-.16 0-.44.05-.584-.017l-.227-.165.023-.1c.348-.074 1.615-.498 1.66-.66a1.403 1.403 0 0 1-.02-.088c-.128-.113-.15-.048-.273-.218.003-.162-.048-.29-.01-.436.064-.243.222-.496.17-.805a.18.18 0 0 0-.074-.046c-.322-.112-.717.596-1 .738a.22.22 0 0 0-.006-.03c-.106-.124-.07-.316-.05-.474.076-.604.69-.93 1.257-.642.335-.07.47-.27.647-.436.145-.133.353-.27.428-.445.236-.554-.61-.9-.957-.93-.572-.05-.937.64-1.114.906-.206.308-.406.693-.647.967-.196.223-.38.396-.485.664-.157.4-.105.963-.2 1.393-.77.2-1.092-.468-1.152-1.09-.002-.03.368-.407.44-.525l.4-.815c.19-.295.52-.58.756-.837.35-.38 1.12-.834 1.344-1.258l-.004-.015c-.36-.058-.86-.106-1.092-.383l.007-.033c.908-.035 1.465-.56 1.903-.95m-.422.724c-.012.02-.024.037-.034.056.018.037.038.073.057.11.035-.023.07-.047.107-.07l-.017-.075-.022-.028c-.03.003-.062.005-.092.006m-.03.21c-.028.03-.06.056-.09.084.015.013.03.026.04.038l.087-.036.015-.067-.02-.026c-.01.004-.022.006-.03.01M50.914 9.55c.478.078.727.297.68.72-.017.138-.16.28-.08.45.18.37.79.608 1.293.75l-.007.215c-.255.345-.834.41-1.19.627-.115.07-.182.24-.313.287-.372.126-.726-.01-.842.486.21.296.833.285.955.645.06.174-.002.89-.117 1.123-.062.126-.27.467-.222.658.09.234.44.285.634.45.28.24.49.46.542.882.048.393-.483.772-.923.597-.265-.106-.388-.443-.566-.655-.07-.082-.227-.135-.32-.194-.11-.068-.58.064-.633.076-.09-.01-.182-.02-.272-.032-.38.05-.807.078-1.222-.087-.023-.265-.205-.59-.377-.762l-.06-.01-.036.025c-.038.238.135 1.138-.083 1.19-.12.03-.306-.162-.35-.214-.155-.192-.118-.508-.196-.73-.13-.182-.257-.363-.385-.546-.05-.145.047-.306-.052-.41-.123-.13-1.01.203-1.38.023-.213-.104-.574-.573-.287-.837l.4-.256c.096-.126-.005-.385.09-.51.17.013.454.155.716.14.274-.015 1.393-.234 1.52-.4l.278-.972c.11-.215.31-.29.364-.586-.04-.032-.042-.045-.062-.09-.39-.067-.63-.107-.946-.163-.047-.098-.135-.166-.186-.264.014-.1.01-.12.048-.178.036-.05-.006-.018.052-.037.188-.015.215.157.395.13.24-.035 1.02-.225 1.177-.368.33-.303.31-.9.715-1.096.278.045.426.126.63.187.003.04-.023.046.052.07-.154.448-.612.58-.852.904-.294.395-.363.974-.554 1.495-.034.1-.205.373-.19.478.382.103.342-.425.63-.51.293-.024.658.077.824-.12.18-.215.08-.532.215-.796.15-.3.36-.655.46-.97.115-.355-.31-.475.034-.814m.52 1.372c-.168.26-.453.7-.468 1l.028.02c.23.04.78-.117.935-.223.053-.325-.25-.595-.407-.782l-.09-.016m-1.8 1.82c-.398.125-.565.42-.835.72-.36.407-1.176 1.116-.81 1.916.177.386.723.854 1.334.68.15-.043.18.01.28-.09-.167-.326-.347-1.184-.61-1.39.006-.01.013-.018.02-.027l.51.09c.192.11.843.546 1.013.485.115-.416.418-.977.214-1.323-.052-.004-.103-.008-.154-.01-.178.098-.278.4-.453.476-.17.074-.23-.237-.25-.336-.09-.4.023-.64.024-1.125a23.464 23.464 0 0 0-.283-.064M9.788 32.99c.092-.31 1.166-1.207 1.41-1.263.39 0 .72.42 1.125.332.285-.454.232-1.09.282-1.643.034-.375.268-.846.55-.814.38.39.58.936.73 1.456.08.28.08.746.394.878.03-.018.06-.037.092-.054.235-.1.323-.71.473-.945.102-.023.28-.13.43-.013.25.238.047.578.013.95-.038.43.292.808.4 1.21.05.185-.027.31.022.51.1.417.917.288 1.24.553.124.104.108.29.206.402.177.206.5.177.722.367l.254.288-.005.015c-.457-.11-1.013.07-1.41.142-.252.047-.6-.183-.866-.12-.038.13-.08.26-.12.392-.325.056-.762.035-.953.327-.11.165.038.3-.094.464-.106.013-.3.01-.407.05-.208.074-.336.305-.567.35-.257.053-.465-.274-.644-.013l-.088-.025c-.086-.284-.716-.32-1.063-.442.133-.276.394-.257.506-.48.122-.236-.1-.426-.14-.59-.12-.474-.067-1.042-.227-1.446a75.222 75.222 0 0 0-.507-.167c-.208-.046-.417-.09-.626-.137-.13-.077-.242-.202-.358-.253-.288-.13-.583-.064-.767-.253l-.007-.033m3.3-1.72c.087.8-.624 1.258.5 1.54.16.038.264.02.37-.028l.004-.015c-.31-.558-.327-1.16-.754-1.716-.05.008-.018-.003-.052.02l-.07.2m.145 3.224c.06.378.186.586.363.885.262.073.284-.066.438-.104.14.03.278.063.417.095.037 0 .005.02.047 0 .122-.02.188-.197.195-.375-.213-.238-.654-.627-1.13-.554-.177.027-.198-.076-.33.054M17.216 20.808c.4-.407.803-.8 1.205-.86.96-.147 1.922.928 2.822 1.83.306.304.61.61.915.914.5.642 1.485 1.124 1.658 1.852.073.303-.185 1.71-.763 1.84-.28.063-.94-.115-1.174.29-.067.118-.09.273-.13.41-.027.095-.71 1.016-.882 1.1-.21.1-.38.04-.58.064-.075.202.045.356-.152.56l-.01.01c-.198-.045-.44-.09-.658-.162-.066-.02-.495-.435-.528-.528-.14-.392-.47-.83-.732-1.227-.223-.336-.567-.53-.753-.644l-.56-.453c-.135-.088-.426-.25-.55-.463-.59-1.03-.363-1.48-.215-2.497.05-.328.284-.653.367-.97l.107-.106a8.33 8.33 0 0 0 .323-.625c.098-.112.195-.222.29-.334m.583.02l-.7.895c-.374.687-.327 1.48-.15 2.176.036.146.202.69.398.763l.053.01c.25-.344.058-1.952.892-1.905.423-.14.66.788.85 1 .28-.025.75-.04.98-.333-.038-.085-.037-.14.055-.226.345-.052.636-.28.968-.15l.258.257c-.01.27-.076.545-.118.85-.09.667-.068 1.34-.43 2.024-.12.228-.317.323-.474.475-.26-.1-.428-.124-.73-.43l.02-.582a5.002 5.002 0 0 1-.075-.054c-.09-.014-.09.177-.204.225-.266.113-.608.244-.84-.086-.032-.048-.132-.098-.13-.173-.05-.287.656-1.646.012-1.69l-.02-.022c-.152.29-.72 1.038-.658 1.303.01.178.308.304.388.538.18.532.913 1.312 1.464 1.744.19.148.144.318.334.377.16-.153.31-.057.473-.13.21-.092.703-.844.862-1.097l-.043-.043c-.076.018-.126-.04-.173-.065l-.012-.033c.2-.184.532-.076.657-.377.065-.154-.036-.298.033-.463.265-.108.734-.088.904-.452.378-.81-1.127-2.478-2.024-3.058-.137-.088-.425-.448-.624-.538l-.367-.345c-.45-.275-.87-.684-1.324-.808-.143.1-.33.24-.505.42m1.54 3.477c.013.064.027.13.042.194.062.06.072.067.13.066l.01-.054a3.963 3.963 0 0 0-.01-.118.345.345 0 0 0-.152-.108l-.02.02m-.41.69c-.053.208-.075.302-.022.517.007-.007.015-.015.022-.02.025-.005.05-.01.075-.013.05-.156.043-.28.064-.43l-.064-.065-.075.01m1.303-1.194c.013.086.04.177.108.26.13.043.26.113.387.13l.01-.012-.03-.183c-.146-.168-.182-.26-.356-.29l-.12.096M27.187 13.102c.424-.278 1.46.317 1.79.644.19.188.09.457.31.58.284.16.62.157.906.297.175.084.3.295.48.34.248.062.55-.102.785.03.083.043.115.13.12.212-.262.443-1.04 1.01-.983 1.523.05.445.435.71.563 1.16l.45 1.18c.022.09.038.384.12.432.024.174.016.378.03.546.016.173.202.366.167.473l-.017-.026c-.473-.055-.872-.482-1.236-.936-.3-.37-.5-.992-.813-1.18l-.035.005c-.588.422-.678 1.033-1.46 1.38-.198-.2-.68-.667-.624-.974.04-.215.227-.402.228-.624l-.074-.28c-.01-.16.045-.354.062-.515.015-.144-.222-.857-.417-.8-.172.052-.166.6-.162.726.01.322.125.656.138.985.026.66-.292.8.05 1.572.155.352 1.052.973 1.02 1.134a3.17 3.17 0 0 1-.01.097c-.103.076-.13.1-.22.108-.203-.08-.448-.17-.636-.328-.168-.142-.253-.324-.433-.407l-.045.012c-.3.557-.176 1.164-1.078 1.603l-.127-.026c-.142-.207-.588-.653-.58-.912l.15-.627c.05-.52.047-1.04.11-1.55l-.054-.055a.352.352 0 0 0-.034.004c-.176.252-.622.864-.982.92-.48-.717.018-1.43.176-2.032.09-.34.34-1.625.278-1.932-.05-.244-.22-.36-.263-.593.222-.254.484-.245.75-.33.226.404.063.68.03 1.074-.066.794-.38 1.61-.588 2.375-.058.215-.168.41-.185.632l.076.06c.097-.083 1.17-1.13 1.19-1.184.17-.496-.585-1.69.39-1.843.16.088.617.3.79.317l.04-.025c.147-.534-.026-.595-.456-.885.03-.27.09-.427.27-.67.245.147.45.208.7.176.223-.46-.82-1.31-.66-1.86m-.663 3.643c-.06.16-.177.442-.004.605l.098-.045c.083-.187.128-.32.108-.528-.084-.1-.128-.05-.202-.03m1.714-.8c-.02.06-.04.08-.03.147.01.03.018.062.025.093.04.015.082.03.123.047.023-.03.047-.057.07-.084-.05-.113-.028-.176-.115-.233-.023.01-.048.018-.072.03m-1.398 1.612c-.166.28-.323.843.138 1.095l.042-.047c.114-.294.253-.913.117-1.208a1.283 1.283 0 0 0-.297.16m3.14-1.85c-.01.07-.01.12.025.203l.03.018.106-.142-.03-.072c-.022-.016-.044-.03-.066-.047l-.065.04m-3.87 2.567l-.15.135.047.097c.104-.013.186 0 .28-.075l.026-.127-.105-.076-.098.045m2.785-1.086c-.044.254-.212.478-.23.734.018.026.035.05.052.077h.055c.21-.144.575-.662.296-.796-.086-.04-.066-.067-.173-.013m-2.44 2.082c.005.245-.108.913-.007 1.098l.026-.017a2.98 2.98 0 0 0 .1-.068c.01-.337.443-.672.05-1.034l-.106-.02-.063.042" />
  </g>
</svg>
